G75*
%MOIN*%
%OFA0B0*%
%FSLAX25Y25*%
%IPPOS*%
%LPD*%
%AMOC8*
5,1,8,0,0,1.08239X$1,22.5*
%
%ADD10C,0.00000*%
%ADD11C,0.03543*%
%ADD12C,0.08661*%
%ADD13C,0.07874*%
%ADD14C,0.10000*%
%ADD15C,0.07600*%
%ADD16R,0.05512X0.15748*%
%ADD17C,0.01378*%
%ADD18R,0.05906X0.05118*%
%ADD19C,0.07874*%
%ADD20C,0.11811*%
%ADD21C,0.04252*%
%ADD22C,0.03200*%
%ADD23C,0.01600*%
%ADD24C,0.01200*%
D10*
X0041537Y0003071D02*
X0090356Y0003071D01*
X0090546Y0003073D01*
X0090736Y0003080D01*
X0090926Y0003092D01*
X0091116Y0003108D01*
X0091305Y0003128D01*
X0091494Y0003154D01*
X0091682Y0003183D01*
X0091869Y0003218D01*
X0092055Y0003257D01*
X0092240Y0003300D01*
X0092425Y0003348D01*
X0092608Y0003400D01*
X0092789Y0003456D01*
X0092969Y0003517D01*
X0093148Y0003583D01*
X0093325Y0003652D01*
X0093501Y0003726D01*
X0093674Y0003804D01*
X0093846Y0003887D01*
X0094015Y0003973D01*
X0094183Y0004063D01*
X0094348Y0004158D01*
X0094511Y0004256D01*
X0094671Y0004359D01*
X0094829Y0004465D01*
X0094984Y0004575D01*
X0095137Y0004688D01*
X0095287Y0004806D01*
X0095433Y0004927D01*
X0095577Y0005051D01*
X0095718Y0005179D01*
X0095856Y0005310D01*
X0095991Y0005445D01*
X0096122Y0005583D01*
X0096250Y0005724D01*
X0096374Y0005868D01*
X0096495Y0006014D01*
X0096613Y0006164D01*
X0096726Y0006317D01*
X0096836Y0006472D01*
X0096942Y0006630D01*
X0097045Y0006790D01*
X0097143Y0006953D01*
X0097238Y0007118D01*
X0097328Y0007286D01*
X0097414Y0007455D01*
X0097497Y0007627D01*
X0097575Y0007800D01*
X0097649Y0007976D01*
X0097718Y0008153D01*
X0097784Y0008332D01*
X0097845Y0008512D01*
X0097901Y0008693D01*
X0097953Y0008876D01*
X0098001Y0009061D01*
X0098044Y0009246D01*
X0098083Y0009432D01*
X0098118Y0009619D01*
X0098147Y0009807D01*
X0098173Y0009996D01*
X0098193Y0010185D01*
X0098209Y0010375D01*
X0098221Y0010565D01*
X0098228Y0010755D01*
X0098230Y0010945D01*
X0098230Y0023161D01*
X0098232Y0023351D01*
X0098239Y0023541D01*
X0098251Y0023731D01*
X0098267Y0023921D01*
X0098287Y0024110D01*
X0098313Y0024299D01*
X0098342Y0024487D01*
X0098377Y0024674D01*
X0098416Y0024860D01*
X0098459Y0025045D01*
X0098507Y0025230D01*
X0098559Y0025413D01*
X0098615Y0025594D01*
X0098676Y0025774D01*
X0098742Y0025953D01*
X0098811Y0026130D01*
X0098885Y0026306D01*
X0098963Y0026479D01*
X0099046Y0026651D01*
X0099132Y0026820D01*
X0099222Y0026988D01*
X0099317Y0027153D01*
X0099415Y0027316D01*
X0099518Y0027476D01*
X0099624Y0027634D01*
X0099734Y0027789D01*
X0099847Y0027942D01*
X0099965Y0028092D01*
X0100086Y0028238D01*
X0100210Y0028382D01*
X0100338Y0028523D01*
X0100469Y0028661D01*
X0100604Y0028796D01*
X0100742Y0028927D01*
X0100883Y0029055D01*
X0101027Y0029179D01*
X0101173Y0029300D01*
X0101323Y0029418D01*
X0101476Y0029531D01*
X0101631Y0029641D01*
X0101789Y0029747D01*
X0101949Y0029850D01*
X0102112Y0029948D01*
X0102277Y0030043D01*
X0102445Y0030133D01*
X0102614Y0030219D01*
X0102786Y0030302D01*
X0102959Y0030380D01*
X0103135Y0030454D01*
X0103312Y0030523D01*
X0103491Y0030589D01*
X0103671Y0030650D01*
X0103852Y0030706D01*
X0104035Y0030758D01*
X0104220Y0030806D01*
X0104405Y0030849D01*
X0104591Y0030888D01*
X0104778Y0030923D01*
X0104966Y0030952D01*
X0105155Y0030978D01*
X0105344Y0030998D01*
X0105534Y0031014D01*
X0105724Y0031026D01*
X0105914Y0031033D01*
X0106104Y0031035D01*
X0146261Y0031035D01*
X0146451Y0031033D01*
X0146641Y0031026D01*
X0146831Y0031014D01*
X0147021Y0030998D01*
X0147210Y0030978D01*
X0147399Y0030952D01*
X0147587Y0030923D01*
X0147774Y0030888D01*
X0147960Y0030849D01*
X0148145Y0030806D01*
X0148330Y0030758D01*
X0148513Y0030706D01*
X0148694Y0030650D01*
X0148874Y0030589D01*
X0149053Y0030523D01*
X0149230Y0030454D01*
X0149406Y0030380D01*
X0149579Y0030302D01*
X0149751Y0030219D01*
X0149920Y0030133D01*
X0150088Y0030043D01*
X0150253Y0029948D01*
X0150416Y0029850D01*
X0150576Y0029747D01*
X0150734Y0029641D01*
X0150889Y0029531D01*
X0151042Y0029418D01*
X0151192Y0029300D01*
X0151338Y0029179D01*
X0151482Y0029055D01*
X0151623Y0028927D01*
X0151761Y0028796D01*
X0151896Y0028661D01*
X0152027Y0028523D01*
X0152155Y0028382D01*
X0152279Y0028238D01*
X0152400Y0028092D01*
X0152518Y0027942D01*
X0152631Y0027789D01*
X0152741Y0027634D01*
X0152847Y0027476D01*
X0152950Y0027316D01*
X0153048Y0027153D01*
X0153143Y0026988D01*
X0153233Y0026820D01*
X0153319Y0026651D01*
X0153402Y0026479D01*
X0153480Y0026306D01*
X0153554Y0026130D01*
X0153623Y0025953D01*
X0153689Y0025774D01*
X0153750Y0025594D01*
X0153806Y0025413D01*
X0153858Y0025230D01*
X0153906Y0025045D01*
X0153949Y0024860D01*
X0153988Y0024674D01*
X0154023Y0024487D01*
X0154052Y0024299D01*
X0154078Y0024110D01*
X0154098Y0023921D01*
X0154114Y0023731D01*
X0154126Y0023541D01*
X0154133Y0023351D01*
X0154135Y0023161D01*
X0154135Y0010945D01*
X0154137Y0010755D01*
X0154144Y0010565D01*
X0154156Y0010375D01*
X0154172Y0010185D01*
X0154192Y0009996D01*
X0154218Y0009807D01*
X0154247Y0009619D01*
X0154282Y0009432D01*
X0154321Y0009246D01*
X0154364Y0009061D01*
X0154412Y0008876D01*
X0154464Y0008693D01*
X0154520Y0008512D01*
X0154581Y0008332D01*
X0154647Y0008153D01*
X0154716Y0007976D01*
X0154790Y0007800D01*
X0154868Y0007627D01*
X0154951Y0007455D01*
X0155037Y0007286D01*
X0155127Y0007118D01*
X0155222Y0006953D01*
X0155320Y0006790D01*
X0155423Y0006630D01*
X0155529Y0006472D01*
X0155639Y0006317D01*
X0155752Y0006164D01*
X0155870Y0006014D01*
X0155991Y0005868D01*
X0156115Y0005724D01*
X0156243Y0005583D01*
X0156374Y0005445D01*
X0156509Y0005310D01*
X0156647Y0005179D01*
X0156788Y0005051D01*
X0156932Y0004927D01*
X0157078Y0004806D01*
X0157228Y0004688D01*
X0157381Y0004575D01*
X0157536Y0004465D01*
X0157694Y0004359D01*
X0157854Y0004256D01*
X0158017Y0004158D01*
X0158182Y0004063D01*
X0158350Y0003973D01*
X0158519Y0003887D01*
X0158691Y0003804D01*
X0158864Y0003726D01*
X0159040Y0003652D01*
X0159217Y0003583D01*
X0159396Y0003517D01*
X0159576Y0003456D01*
X0159757Y0003400D01*
X0159940Y0003348D01*
X0160125Y0003300D01*
X0160310Y0003257D01*
X0160496Y0003218D01*
X0160683Y0003183D01*
X0160871Y0003154D01*
X0161060Y0003128D01*
X0161249Y0003108D01*
X0161439Y0003092D01*
X0161629Y0003080D01*
X0161819Y0003073D01*
X0162009Y0003071D01*
X0171402Y0003071D01*
X0174186Y0004224D02*
X0204923Y0034961D01*
X0210828Y0057008D02*
X0210828Y0134961D01*
X0181891Y0188110D02*
X0053741Y0188110D01*
X0085726Y0177587D02*
X0085726Y0161839D01*
X0085725Y0161839D02*
X0085727Y0161753D01*
X0085732Y0161667D01*
X0085742Y0161582D01*
X0085755Y0161497D01*
X0085772Y0161413D01*
X0085792Y0161329D01*
X0085816Y0161247D01*
X0085844Y0161166D01*
X0085875Y0161085D01*
X0085909Y0161007D01*
X0085947Y0160930D01*
X0085989Y0160854D01*
X0086033Y0160781D01*
X0086081Y0160710D01*
X0086132Y0160640D01*
X0086186Y0160573D01*
X0086242Y0160509D01*
X0086302Y0160447D01*
X0086364Y0160387D01*
X0086428Y0160331D01*
X0086495Y0160277D01*
X0086565Y0160226D01*
X0086636Y0160178D01*
X0086710Y0160134D01*
X0086785Y0160092D01*
X0086862Y0160054D01*
X0086941Y0160020D01*
X0087021Y0159989D01*
X0087102Y0159961D01*
X0087184Y0159937D01*
X0087268Y0159917D01*
X0087352Y0159900D01*
X0087437Y0159887D01*
X0087522Y0159877D01*
X0087608Y0159872D01*
X0087694Y0159870D01*
X0087694Y0159871D02*
X0087780Y0159873D01*
X0087866Y0159878D01*
X0087951Y0159888D01*
X0088036Y0159901D01*
X0088120Y0159918D01*
X0088203Y0159938D01*
X0088286Y0159962D01*
X0088367Y0159990D01*
X0088447Y0160021D01*
X0088526Y0160055D01*
X0088603Y0160093D01*
X0088678Y0160135D01*
X0088751Y0160179D01*
X0088823Y0160227D01*
X0088892Y0160278D01*
X0088959Y0160331D01*
X0089024Y0160388D01*
X0089086Y0160447D01*
X0089145Y0160509D01*
X0089202Y0160574D01*
X0089255Y0160641D01*
X0089306Y0160710D01*
X0089354Y0160782D01*
X0089398Y0160855D01*
X0089440Y0160930D01*
X0089478Y0161007D01*
X0089512Y0161086D01*
X0089543Y0161166D01*
X0089571Y0161247D01*
X0089595Y0161330D01*
X0089615Y0161413D01*
X0089632Y0161497D01*
X0089645Y0161582D01*
X0089655Y0161667D01*
X0089660Y0161753D01*
X0089662Y0161839D01*
X0089663Y0161839D02*
X0089663Y0177587D01*
X0087694Y0179556D02*
X0087608Y0179554D01*
X0087522Y0179549D01*
X0087437Y0179539D01*
X0087352Y0179526D01*
X0087268Y0179509D01*
X0087184Y0179489D01*
X0087102Y0179465D01*
X0087021Y0179437D01*
X0086940Y0179406D01*
X0086862Y0179372D01*
X0086785Y0179334D01*
X0086710Y0179292D01*
X0086636Y0179248D01*
X0086565Y0179200D01*
X0086495Y0179149D01*
X0086428Y0179095D01*
X0086364Y0179039D01*
X0086302Y0178979D01*
X0086242Y0178917D01*
X0086186Y0178853D01*
X0086132Y0178786D01*
X0086081Y0178716D01*
X0086033Y0178645D01*
X0085989Y0178572D01*
X0085947Y0178496D01*
X0085909Y0178419D01*
X0085875Y0178341D01*
X0085844Y0178260D01*
X0085816Y0178179D01*
X0085792Y0178097D01*
X0085772Y0178013D01*
X0085755Y0177929D01*
X0085742Y0177844D01*
X0085732Y0177759D01*
X0085727Y0177673D01*
X0085725Y0177587D01*
X0087694Y0179556D02*
X0087780Y0179554D01*
X0087866Y0179549D01*
X0087951Y0179539D01*
X0088036Y0179526D01*
X0088120Y0179509D01*
X0088204Y0179489D01*
X0088286Y0179465D01*
X0088367Y0179437D01*
X0088448Y0179406D01*
X0088526Y0179372D01*
X0088603Y0179334D01*
X0088679Y0179292D01*
X0088752Y0179248D01*
X0088823Y0179200D01*
X0088893Y0179149D01*
X0088960Y0179095D01*
X0089024Y0179039D01*
X0089086Y0178979D01*
X0089146Y0178917D01*
X0089202Y0178853D01*
X0089256Y0178786D01*
X0089307Y0178716D01*
X0089355Y0178645D01*
X0089399Y0178571D01*
X0089441Y0178496D01*
X0089479Y0178419D01*
X0089513Y0178340D01*
X0089544Y0178260D01*
X0089572Y0178179D01*
X0089596Y0178097D01*
X0089616Y0178013D01*
X0089633Y0177929D01*
X0089646Y0177844D01*
X0089656Y0177759D01*
X0089661Y0177673D01*
X0089663Y0177587D01*
X0079080Y0143819D02*
X0079083Y0144036D01*
X0079091Y0144254D01*
X0079104Y0144471D01*
X0079123Y0144687D01*
X0079147Y0144903D01*
X0079176Y0145119D01*
X0079210Y0145333D01*
X0079250Y0145547D01*
X0079295Y0145760D01*
X0079345Y0145971D01*
X0079401Y0146182D01*
X0079461Y0146390D01*
X0079527Y0146598D01*
X0079598Y0146803D01*
X0079674Y0147007D01*
X0079754Y0147209D01*
X0079840Y0147409D01*
X0079930Y0147606D01*
X0080026Y0147802D01*
X0080126Y0147995D01*
X0080231Y0148185D01*
X0080340Y0148373D01*
X0080454Y0148558D01*
X0080573Y0148740D01*
X0080696Y0148920D01*
X0080823Y0149096D01*
X0080955Y0149269D01*
X0081091Y0149438D01*
X0081231Y0149605D01*
X0081375Y0149768D01*
X0081523Y0149927D01*
X0081674Y0150083D01*
X0081830Y0150234D01*
X0081989Y0150382D01*
X0082152Y0150526D01*
X0082319Y0150666D01*
X0082488Y0150802D01*
X0082661Y0150934D01*
X0082837Y0151061D01*
X0083017Y0151184D01*
X0083199Y0151303D01*
X0083384Y0151417D01*
X0083572Y0151526D01*
X0083762Y0151631D01*
X0083955Y0151731D01*
X0084151Y0151827D01*
X0084348Y0151917D01*
X0084548Y0152003D01*
X0084750Y0152083D01*
X0084954Y0152159D01*
X0085159Y0152230D01*
X0085367Y0152296D01*
X0085575Y0152356D01*
X0085786Y0152412D01*
X0085997Y0152462D01*
X0086210Y0152507D01*
X0086424Y0152547D01*
X0086638Y0152581D01*
X0086854Y0152610D01*
X0087070Y0152634D01*
X0087286Y0152653D01*
X0087503Y0152666D01*
X0087721Y0152674D01*
X0087938Y0152677D01*
X0088155Y0152674D01*
X0088373Y0152666D01*
X0088590Y0152653D01*
X0088806Y0152634D01*
X0089022Y0152610D01*
X0089238Y0152581D01*
X0089452Y0152547D01*
X0089666Y0152507D01*
X0089879Y0152462D01*
X0090090Y0152412D01*
X0090301Y0152356D01*
X0090509Y0152296D01*
X0090717Y0152230D01*
X0090922Y0152159D01*
X0091126Y0152083D01*
X0091328Y0152003D01*
X0091528Y0151917D01*
X0091725Y0151827D01*
X0091921Y0151731D01*
X0092114Y0151631D01*
X0092304Y0151526D01*
X0092492Y0151417D01*
X0092677Y0151303D01*
X0092859Y0151184D01*
X0093039Y0151061D01*
X0093215Y0150934D01*
X0093388Y0150802D01*
X0093557Y0150666D01*
X0093724Y0150526D01*
X0093887Y0150382D01*
X0094046Y0150234D01*
X0094202Y0150083D01*
X0094353Y0149927D01*
X0094501Y0149768D01*
X0094645Y0149605D01*
X0094785Y0149438D01*
X0094921Y0149269D01*
X0095053Y0149096D01*
X0095180Y0148920D01*
X0095303Y0148740D01*
X0095422Y0148558D01*
X0095536Y0148373D01*
X0095645Y0148185D01*
X0095750Y0147995D01*
X0095850Y0147802D01*
X0095946Y0147606D01*
X0096036Y0147409D01*
X0096122Y0147209D01*
X0096202Y0147007D01*
X0096278Y0146803D01*
X0096349Y0146598D01*
X0096415Y0146390D01*
X0096475Y0146182D01*
X0096531Y0145971D01*
X0096581Y0145760D01*
X0096626Y0145547D01*
X0096666Y0145333D01*
X0096700Y0145119D01*
X0096729Y0144903D01*
X0096753Y0144687D01*
X0096772Y0144471D01*
X0096785Y0144254D01*
X0096793Y0144036D01*
X0096796Y0143819D01*
X0096793Y0143602D01*
X0096785Y0143384D01*
X0096772Y0143167D01*
X0096753Y0142951D01*
X0096729Y0142735D01*
X0096700Y0142519D01*
X0096666Y0142305D01*
X0096626Y0142091D01*
X0096581Y0141878D01*
X0096531Y0141667D01*
X0096475Y0141456D01*
X0096415Y0141248D01*
X0096349Y0141040D01*
X0096278Y0140835D01*
X0096202Y0140631D01*
X0096122Y0140429D01*
X0096036Y0140229D01*
X0095946Y0140032D01*
X0095850Y0139836D01*
X0095750Y0139643D01*
X0095645Y0139453D01*
X0095536Y0139265D01*
X0095422Y0139080D01*
X0095303Y0138898D01*
X0095180Y0138718D01*
X0095053Y0138542D01*
X0094921Y0138369D01*
X0094785Y0138200D01*
X0094645Y0138033D01*
X0094501Y0137870D01*
X0094353Y0137711D01*
X0094202Y0137555D01*
X0094046Y0137404D01*
X0093887Y0137256D01*
X0093724Y0137112D01*
X0093557Y0136972D01*
X0093388Y0136836D01*
X0093215Y0136704D01*
X0093039Y0136577D01*
X0092859Y0136454D01*
X0092677Y0136335D01*
X0092492Y0136221D01*
X0092304Y0136112D01*
X0092114Y0136007D01*
X0091921Y0135907D01*
X0091725Y0135811D01*
X0091528Y0135721D01*
X0091328Y0135635D01*
X0091126Y0135555D01*
X0090922Y0135479D01*
X0090717Y0135408D01*
X0090509Y0135342D01*
X0090301Y0135282D01*
X0090090Y0135226D01*
X0089879Y0135176D01*
X0089666Y0135131D01*
X0089452Y0135091D01*
X0089238Y0135057D01*
X0089022Y0135028D01*
X0088806Y0135004D01*
X0088590Y0134985D01*
X0088373Y0134972D01*
X0088155Y0134964D01*
X0087938Y0134961D01*
X0087721Y0134964D01*
X0087503Y0134972D01*
X0087286Y0134985D01*
X0087070Y0135004D01*
X0086854Y0135028D01*
X0086638Y0135057D01*
X0086424Y0135091D01*
X0086210Y0135131D01*
X0085997Y0135176D01*
X0085786Y0135226D01*
X0085575Y0135282D01*
X0085367Y0135342D01*
X0085159Y0135408D01*
X0084954Y0135479D01*
X0084750Y0135555D01*
X0084548Y0135635D01*
X0084348Y0135721D01*
X0084151Y0135811D01*
X0083955Y0135907D01*
X0083762Y0136007D01*
X0083572Y0136112D01*
X0083384Y0136221D01*
X0083199Y0136335D01*
X0083017Y0136454D01*
X0082837Y0136577D01*
X0082661Y0136704D01*
X0082488Y0136836D01*
X0082319Y0136972D01*
X0082152Y0137112D01*
X0081989Y0137256D01*
X0081830Y0137404D01*
X0081674Y0137555D01*
X0081523Y0137711D01*
X0081375Y0137870D01*
X0081231Y0138033D01*
X0081091Y0138200D01*
X0080955Y0138369D01*
X0080823Y0138542D01*
X0080696Y0138718D01*
X0080573Y0138898D01*
X0080454Y0139080D01*
X0080340Y0139265D01*
X0080231Y0139453D01*
X0080126Y0139643D01*
X0080026Y0139836D01*
X0079930Y0140032D01*
X0079840Y0140229D01*
X0079754Y0140429D01*
X0079674Y0140631D01*
X0079598Y0140835D01*
X0079527Y0141040D01*
X0079461Y0141248D01*
X0079401Y0141456D01*
X0079345Y0141667D01*
X0079295Y0141878D01*
X0079250Y0142091D01*
X0079210Y0142305D01*
X0079176Y0142519D01*
X0079147Y0142735D01*
X0079123Y0142951D01*
X0079104Y0143167D01*
X0079091Y0143384D01*
X0079083Y0143602D01*
X0079080Y0143819D01*
X0053741Y0188111D02*
X0052396Y0188036D01*
X0051054Y0187928D01*
X0049714Y0187788D01*
X0048378Y0187615D01*
X0047047Y0187411D01*
X0045721Y0187174D01*
X0044402Y0186905D01*
X0043089Y0186604D01*
X0041784Y0186272D01*
X0040487Y0185908D01*
X0039199Y0185513D01*
X0037922Y0185086D01*
X0036655Y0184629D01*
X0035399Y0184142D01*
X0034156Y0183624D01*
X0032925Y0183076D01*
X0031709Y0182499D01*
X0030506Y0181893D01*
X0029319Y0181257D01*
X0028147Y0180593D01*
X0026991Y0179901D01*
X0025853Y0179181D01*
X0024733Y0178434D01*
X0023630Y0177660D01*
X0022547Y0176859D01*
X0021484Y0176033D01*
X0020441Y0175181D01*
X0019419Y0174304D01*
X0018418Y0173402D01*
X0017439Y0172477D01*
X0016483Y0171528D01*
X0015551Y0170556D01*
X0014642Y0169563D01*
X0013757Y0168547D01*
X0012898Y0167510D01*
X0012063Y0166453D01*
X0011255Y0165376D01*
X0010472Y0164280D01*
X0009717Y0163165D01*
X0008988Y0162032D01*
X0008288Y0160881D01*
X0007615Y0159715D01*
X0006971Y0158532D01*
X0006355Y0157334D01*
X0005769Y0156121D01*
X0005212Y0154895D01*
X0004685Y0153656D01*
X0004188Y0152404D01*
X0003722Y0151140D01*
X0003286Y0149866D01*
X0002882Y0148581D01*
X0002508Y0147287D01*
X0002166Y0145985D01*
X0002167Y0145984D02*
X0002167Y0053071D01*
X0028938Y0049134D02*
X0042718Y0049134D01*
X0050986Y0057401D01*
X0050986Y0090838D01*
X0051562Y0092230D02*
X0063007Y0103675D01*
X0064399Y0104252D02*
X0070458Y0104252D01*
X0086437Y0120230D01*
X0087781Y0120787D02*
X0087864Y0120785D01*
X0087947Y0120780D01*
X0088029Y0120771D01*
X0088111Y0120758D01*
X0088192Y0120742D01*
X0088273Y0120722D01*
X0088353Y0120699D01*
X0088431Y0120672D01*
X0088508Y0120642D01*
X0088584Y0120609D01*
X0088659Y0120572D01*
X0088732Y0120532D01*
X0088802Y0120489D01*
X0088871Y0120443D01*
X0088938Y0120394D01*
X0089003Y0120342D01*
X0089065Y0120288D01*
X0089125Y0120230D01*
X0089193Y0120163D01*
X0089192Y0120163D02*
X0089250Y0120103D01*
X0089304Y0120041D01*
X0089356Y0119976D01*
X0089405Y0119909D01*
X0089451Y0119840D01*
X0089494Y0119770D01*
X0089534Y0119697D01*
X0089571Y0119622D01*
X0089604Y0119546D01*
X0089634Y0119469D01*
X0089661Y0119391D01*
X0089684Y0119311D01*
X0089704Y0119230D01*
X0089720Y0119149D01*
X0089733Y0119067D01*
X0089742Y0118985D01*
X0089747Y0118902D01*
X0089749Y0118819D01*
X0089193Y0117475D02*
X0072609Y0100891D01*
X0071217Y0100315D02*
X0065159Y0100315D01*
X0054923Y0090079D01*
X0054923Y0056642D01*
X0054346Y0055250D02*
X0044869Y0045773D01*
X0043477Y0045197D02*
X0028938Y0045197D01*
X0028938Y0045196D02*
X0028852Y0045198D01*
X0028766Y0045203D01*
X0028681Y0045213D01*
X0028596Y0045226D01*
X0028512Y0045243D01*
X0028428Y0045263D01*
X0028346Y0045287D01*
X0028265Y0045315D01*
X0028184Y0045346D01*
X0028106Y0045380D01*
X0028029Y0045418D01*
X0027953Y0045460D01*
X0027880Y0045504D01*
X0027809Y0045552D01*
X0027739Y0045603D01*
X0027672Y0045657D01*
X0027608Y0045713D01*
X0027546Y0045773D01*
X0027486Y0045835D01*
X0027430Y0045899D01*
X0027376Y0045966D01*
X0027325Y0046036D01*
X0027277Y0046107D01*
X0027233Y0046181D01*
X0027191Y0046256D01*
X0027153Y0046333D01*
X0027119Y0046411D01*
X0027088Y0046492D01*
X0027060Y0046573D01*
X0027036Y0046655D01*
X0027016Y0046739D01*
X0026999Y0046823D01*
X0026986Y0046908D01*
X0026976Y0046993D01*
X0026971Y0047079D01*
X0026969Y0047165D01*
X0026971Y0047251D01*
X0026976Y0047337D01*
X0026986Y0047422D01*
X0026999Y0047507D01*
X0027016Y0047591D01*
X0027036Y0047675D01*
X0027060Y0047757D01*
X0027088Y0047838D01*
X0027119Y0047919D01*
X0027153Y0047997D01*
X0027191Y0048074D01*
X0027233Y0048150D01*
X0027277Y0048223D01*
X0027325Y0048294D01*
X0027376Y0048364D01*
X0027430Y0048431D01*
X0027486Y0048495D01*
X0027546Y0048557D01*
X0027608Y0048617D01*
X0027672Y0048673D01*
X0027739Y0048727D01*
X0027809Y0048778D01*
X0027880Y0048826D01*
X0027954Y0048870D01*
X0028029Y0048912D01*
X0028106Y0048950D01*
X0028184Y0048984D01*
X0028265Y0049015D01*
X0028346Y0049043D01*
X0028428Y0049067D01*
X0028512Y0049087D01*
X0028596Y0049104D01*
X0028681Y0049117D01*
X0028766Y0049127D01*
X0028852Y0049132D01*
X0028938Y0049134D01*
X0043477Y0045196D02*
X0043563Y0045198D01*
X0043649Y0045203D01*
X0043734Y0045213D01*
X0043819Y0045226D01*
X0043903Y0045243D01*
X0043987Y0045263D01*
X0044069Y0045287D01*
X0044150Y0045315D01*
X0044231Y0045346D01*
X0044309Y0045380D01*
X0044386Y0045418D01*
X0044462Y0045460D01*
X0044535Y0045504D01*
X0044606Y0045552D01*
X0044676Y0045603D01*
X0044743Y0045657D01*
X0044807Y0045713D01*
X0044869Y0045773D01*
X0054346Y0055250D02*
X0054406Y0055312D01*
X0054462Y0055376D01*
X0054516Y0055443D01*
X0054567Y0055513D01*
X0054615Y0055584D01*
X0054659Y0055657D01*
X0054701Y0055733D01*
X0054739Y0055810D01*
X0054773Y0055888D01*
X0054804Y0055969D01*
X0054832Y0056050D01*
X0054856Y0056132D01*
X0054876Y0056216D01*
X0054893Y0056300D01*
X0054906Y0056385D01*
X0054916Y0056470D01*
X0054921Y0056556D01*
X0054923Y0056642D01*
X0210827Y0134961D02*
X0209626Y0138571D01*
X0208339Y0142151D01*
X0206969Y0145701D01*
X0205514Y0149217D01*
X0203977Y0152697D01*
X0202358Y0156140D01*
X0200659Y0159544D01*
X0198879Y0162907D01*
X0197020Y0166227D01*
X0195084Y0169502D01*
X0193070Y0172731D01*
X0190981Y0175911D01*
X0188817Y0179040D01*
X0186580Y0182118D01*
X0184271Y0185142D01*
X0181891Y0188110D01*
X0138135Y0143819D02*
X0138138Y0144036D01*
X0138146Y0144254D01*
X0138159Y0144471D01*
X0138178Y0144687D01*
X0138202Y0144903D01*
X0138231Y0145119D01*
X0138265Y0145333D01*
X0138305Y0145547D01*
X0138350Y0145760D01*
X0138400Y0145971D01*
X0138456Y0146182D01*
X0138516Y0146390D01*
X0138582Y0146598D01*
X0138653Y0146803D01*
X0138729Y0147007D01*
X0138809Y0147209D01*
X0138895Y0147409D01*
X0138985Y0147606D01*
X0139081Y0147802D01*
X0139181Y0147995D01*
X0139286Y0148185D01*
X0139395Y0148373D01*
X0139509Y0148558D01*
X0139628Y0148740D01*
X0139751Y0148920D01*
X0139878Y0149096D01*
X0140010Y0149269D01*
X0140146Y0149438D01*
X0140286Y0149605D01*
X0140430Y0149768D01*
X0140578Y0149927D01*
X0140729Y0150083D01*
X0140885Y0150234D01*
X0141044Y0150382D01*
X0141207Y0150526D01*
X0141374Y0150666D01*
X0141543Y0150802D01*
X0141716Y0150934D01*
X0141892Y0151061D01*
X0142072Y0151184D01*
X0142254Y0151303D01*
X0142439Y0151417D01*
X0142627Y0151526D01*
X0142817Y0151631D01*
X0143010Y0151731D01*
X0143206Y0151827D01*
X0143403Y0151917D01*
X0143603Y0152003D01*
X0143805Y0152083D01*
X0144009Y0152159D01*
X0144214Y0152230D01*
X0144422Y0152296D01*
X0144630Y0152356D01*
X0144841Y0152412D01*
X0145052Y0152462D01*
X0145265Y0152507D01*
X0145479Y0152547D01*
X0145693Y0152581D01*
X0145909Y0152610D01*
X0146125Y0152634D01*
X0146341Y0152653D01*
X0146558Y0152666D01*
X0146776Y0152674D01*
X0146993Y0152677D01*
X0147210Y0152674D01*
X0147428Y0152666D01*
X0147645Y0152653D01*
X0147861Y0152634D01*
X0148077Y0152610D01*
X0148293Y0152581D01*
X0148507Y0152547D01*
X0148721Y0152507D01*
X0148934Y0152462D01*
X0149145Y0152412D01*
X0149356Y0152356D01*
X0149564Y0152296D01*
X0149772Y0152230D01*
X0149977Y0152159D01*
X0150181Y0152083D01*
X0150383Y0152003D01*
X0150583Y0151917D01*
X0150780Y0151827D01*
X0150976Y0151731D01*
X0151169Y0151631D01*
X0151359Y0151526D01*
X0151547Y0151417D01*
X0151732Y0151303D01*
X0151914Y0151184D01*
X0152094Y0151061D01*
X0152270Y0150934D01*
X0152443Y0150802D01*
X0152612Y0150666D01*
X0152779Y0150526D01*
X0152942Y0150382D01*
X0153101Y0150234D01*
X0153257Y0150083D01*
X0153408Y0149927D01*
X0153556Y0149768D01*
X0153700Y0149605D01*
X0153840Y0149438D01*
X0153976Y0149269D01*
X0154108Y0149096D01*
X0154235Y0148920D01*
X0154358Y0148740D01*
X0154477Y0148558D01*
X0154591Y0148373D01*
X0154700Y0148185D01*
X0154805Y0147995D01*
X0154905Y0147802D01*
X0155001Y0147606D01*
X0155091Y0147409D01*
X0155177Y0147209D01*
X0155257Y0147007D01*
X0155333Y0146803D01*
X0155404Y0146598D01*
X0155470Y0146390D01*
X0155530Y0146182D01*
X0155586Y0145971D01*
X0155636Y0145760D01*
X0155681Y0145547D01*
X0155721Y0145333D01*
X0155755Y0145119D01*
X0155784Y0144903D01*
X0155808Y0144687D01*
X0155827Y0144471D01*
X0155840Y0144254D01*
X0155848Y0144036D01*
X0155851Y0143819D01*
X0155848Y0143602D01*
X0155840Y0143384D01*
X0155827Y0143167D01*
X0155808Y0142951D01*
X0155784Y0142735D01*
X0155755Y0142519D01*
X0155721Y0142305D01*
X0155681Y0142091D01*
X0155636Y0141878D01*
X0155586Y0141667D01*
X0155530Y0141456D01*
X0155470Y0141248D01*
X0155404Y0141040D01*
X0155333Y0140835D01*
X0155257Y0140631D01*
X0155177Y0140429D01*
X0155091Y0140229D01*
X0155001Y0140032D01*
X0154905Y0139836D01*
X0154805Y0139643D01*
X0154700Y0139453D01*
X0154591Y0139265D01*
X0154477Y0139080D01*
X0154358Y0138898D01*
X0154235Y0138718D01*
X0154108Y0138542D01*
X0153976Y0138369D01*
X0153840Y0138200D01*
X0153700Y0138033D01*
X0153556Y0137870D01*
X0153408Y0137711D01*
X0153257Y0137555D01*
X0153101Y0137404D01*
X0152942Y0137256D01*
X0152779Y0137112D01*
X0152612Y0136972D01*
X0152443Y0136836D01*
X0152270Y0136704D01*
X0152094Y0136577D01*
X0151914Y0136454D01*
X0151732Y0136335D01*
X0151547Y0136221D01*
X0151359Y0136112D01*
X0151169Y0136007D01*
X0150976Y0135907D01*
X0150780Y0135811D01*
X0150583Y0135721D01*
X0150383Y0135635D01*
X0150181Y0135555D01*
X0149977Y0135479D01*
X0149772Y0135408D01*
X0149564Y0135342D01*
X0149356Y0135282D01*
X0149145Y0135226D01*
X0148934Y0135176D01*
X0148721Y0135131D01*
X0148507Y0135091D01*
X0148293Y0135057D01*
X0148077Y0135028D01*
X0147861Y0135004D01*
X0147645Y0134985D01*
X0147428Y0134972D01*
X0147210Y0134964D01*
X0146993Y0134961D01*
X0146776Y0134964D01*
X0146558Y0134972D01*
X0146341Y0134985D01*
X0146125Y0135004D01*
X0145909Y0135028D01*
X0145693Y0135057D01*
X0145479Y0135091D01*
X0145265Y0135131D01*
X0145052Y0135176D01*
X0144841Y0135226D01*
X0144630Y0135282D01*
X0144422Y0135342D01*
X0144214Y0135408D01*
X0144009Y0135479D01*
X0143805Y0135555D01*
X0143603Y0135635D01*
X0143403Y0135721D01*
X0143206Y0135811D01*
X0143010Y0135907D01*
X0142817Y0136007D01*
X0142627Y0136112D01*
X0142439Y0136221D01*
X0142254Y0136335D01*
X0142072Y0136454D01*
X0141892Y0136577D01*
X0141716Y0136704D01*
X0141543Y0136836D01*
X0141374Y0136972D01*
X0141207Y0137112D01*
X0141044Y0137256D01*
X0140885Y0137404D01*
X0140729Y0137555D01*
X0140578Y0137711D01*
X0140430Y0137870D01*
X0140286Y0138033D01*
X0140146Y0138200D01*
X0140010Y0138369D01*
X0139878Y0138542D01*
X0139751Y0138718D01*
X0139628Y0138898D01*
X0139509Y0139080D01*
X0139395Y0139265D01*
X0139286Y0139453D01*
X0139181Y0139643D01*
X0139081Y0139836D01*
X0138985Y0140032D01*
X0138895Y0140229D01*
X0138809Y0140429D01*
X0138729Y0140631D01*
X0138653Y0140835D01*
X0138582Y0141040D01*
X0138516Y0141248D01*
X0138456Y0141456D01*
X0138400Y0141667D01*
X0138350Y0141878D01*
X0138305Y0142091D01*
X0138265Y0142305D01*
X0138231Y0142519D01*
X0138202Y0142735D01*
X0138178Y0142951D01*
X0138159Y0143167D01*
X0138146Y0143384D01*
X0138138Y0143602D01*
X0138135Y0143819D01*
X0089749Y0118819D02*
X0089747Y0118736D01*
X0089742Y0118653D01*
X0089733Y0118571D01*
X0089720Y0118489D01*
X0089704Y0118408D01*
X0089684Y0118327D01*
X0089661Y0118247D01*
X0089634Y0118169D01*
X0089604Y0118092D01*
X0089571Y0118016D01*
X0089534Y0117941D01*
X0089494Y0117868D01*
X0089451Y0117798D01*
X0089405Y0117729D01*
X0089356Y0117662D01*
X0089304Y0117597D01*
X0089250Y0117535D01*
X0089192Y0117475D01*
X0087781Y0120787D02*
X0087698Y0120785D01*
X0087615Y0120780D01*
X0087533Y0120771D01*
X0087451Y0120758D01*
X0087370Y0120742D01*
X0087289Y0120722D01*
X0087209Y0120699D01*
X0087131Y0120672D01*
X0087054Y0120642D01*
X0086978Y0120609D01*
X0086903Y0120572D01*
X0086830Y0120532D01*
X0086760Y0120489D01*
X0086691Y0120443D01*
X0086624Y0120394D01*
X0086559Y0120342D01*
X0086497Y0120288D01*
X0086437Y0120230D01*
X0072609Y0100891D02*
X0072547Y0100831D01*
X0072483Y0100775D01*
X0072416Y0100721D01*
X0072346Y0100670D01*
X0072275Y0100622D01*
X0072202Y0100578D01*
X0072126Y0100536D01*
X0072049Y0100498D01*
X0071971Y0100464D01*
X0071890Y0100433D01*
X0071809Y0100405D01*
X0071727Y0100381D01*
X0071643Y0100361D01*
X0071559Y0100344D01*
X0071474Y0100331D01*
X0071389Y0100321D01*
X0071303Y0100316D01*
X0071217Y0100314D01*
X0064399Y0104252D02*
X0064313Y0104250D01*
X0064227Y0104245D01*
X0064142Y0104235D01*
X0064057Y0104222D01*
X0063973Y0104205D01*
X0063889Y0104185D01*
X0063807Y0104161D01*
X0063726Y0104133D01*
X0063645Y0104102D01*
X0063567Y0104068D01*
X0063490Y0104030D01*
X0063414Y0103988D01*
X0063341Y0103944D01*
X0063270Y0103896D01*
X0063200Y0103845D01*
X0063133Y0103791D01*
X0063069Y0103735D01*
X0063007Y0103675D01*
X0051562Y0092230D02*
X0051502Y0092168D01*
X0051446Y0092104D01*
X0051392Y0092037D01*
X0051341Y0091967D01*
X0051293Y0091896D01*
X0051249Y0091823D01*
X0051207Y0091747D01*
X0051169Y0091670D01*
X0051135Y0091592D01*
X0051104Y0091511D01*
X0051076Y0091430D01*
X0051052Y0091348D01*
X0051032Y0091264D01*
X0051015Y0091180D01*
X0051002Y0091095D01*
X0050992Y0091010D01*
X0050987Y0090924D01*
X0050985Y0090838D01*
X0002167Y0053071D02*
X0003128Y0050673D01*
X0004146Y0048298D01*
X0005221Y0045949D01*
X0006351Y0043626D01*
X0007536Y0041330D01*
X0008775Y0039063D01*
X0010068Y0036826D01*
X0011414Y0034621D01*
X0012812Y0032449D01*
X0014261Y0030310D01*
X0015761Y0028206D01*
X0017310Y0026139D01*
X0018909Y0024109D01*
X0020555Y0022118D01*
X0022248Y0020167D01*
X0023987Y0018256D01*
X0025771Y0016388D01*
X0027599Y0014562D01*
X0029470Y0012781D01*
X0031383Y0011044D01*
X0033336Y0009354D01*
X0035330Y0007710D01*
X0037362Y0006115D01*
X0039431Y0004568D01*
X0041537Y0003071D01*
X0204923Y0034960D02*
X0205514Y0036176D01*
X0206077Y0037405D01*
X0206609Y0038648D01*
X0207112Y0039903D01*
X0207585Y0041169D01*
X0208027Y0042447D01*
X0208439Y0043734D01*
X0208820Y0045031D01*
X0209170Y0046337D01*
X0209488Y0047651D01*
X0209775Y0048972D01*
X0210031Y0050300D01*
X0210254Y0051633D01*
X0210446Y0052971D01*
X0210606Y0054313D01*
X0210733Y0055659D01*
X0210829Y0057008D01*
X0174186Y0004224D02*
X0174097Y0004138D01*
X0174006Y0004055D01*
X0173912Y0003974D01*
X0173815Y0003897D01*
X0173716Y0003823D01*
X0173615Y0003752D01*
X0173512Y0003684D01*
X0173406Y0003619D01*
X0173299Y0003558D01*
X0173189Y0003500D01*
X0173078Y0003446D01*
X0172966Y0003395D01*
X0172851Y0003347D01*
X0172736Y0003304D01*
X0172619Y0003264D01*
X0172500Y0003227D01*
X0172381Y0003195D01*
X0172261Y0003166D01*
X0172140Y0003141D01*
X0172018Y0003119D01*
X0171895Y0003102D01*
X0171773Y0003088D01*
X0171649Y0003079D01*
X0171526Y0003073D01*
X0171402Y0003071D01*
D11*
X0155769Y0050394D02*
X0152226Y0050394D01*
X0152226Y0055394D02*
X0155769Y0055394D01*
X0155769Y0060394D02*
X0152226Y0060394D01*
X0152226Y0065394D02*
X0155769Y0065394D01*
X0155769Y0070394D02*
X0152226Y0070394D01*
X0152226Y0075394D02*
X0155769Y0075394D01*
X0155769Y0080394D02*
X0152226Y0080394D01*
X0152226Y0085394D02*
X0155769Y0085394D01*
X0143682Y0092520D02*
X0143682Y0096063D01*
X0138682Y0096063D02*
X0138682Y0092520D01*
X0133682Y0092520D02*
X0133682Y0096063D01*
X0128682Y0096063D02*
X0128682Y0092520D01*
X0123682Y0092520D02*
X0123682Y0096063D01*
X0118682Y0096063D02*
X0118682Y0092520D01*
X0113682Y0092520D02*
X0113682Y0096063D01*
X0108682Y0096063D02*
X0108682Y0092520D01*
X0100139Y0085394D02*
X0096596Y0085394D01*
X0096596Y0080394D02*
X0100139Y0080394D01*
X0100139Y0075394D02*
X0096596Y0075394D01*
X0096596Y0070394D02*
X0100139Y0070394D01*
X0100139Y0065394D02*
X0096596Y0065394D01*
X0096596Y0060394D02*
X0100139Y0060394D01*
X0100139Y0055394D02*
X0096596Y0055394D01*
X0096596Y0050394D02*
X0100139Y0050394D01*
D12*
X0040080Y0058299D03*
X0010080Y0058299D03*
X0010080Y0088299D03*
X0040080Y0088299D03*
D13*
X0062348Y0113898D03*
X0070080Y0088299D03*
X0080080Y0088299D03*
X0080080Y0058299D03*
X0070080Y0058299D03*
X0172584Y0143819D03*
X0172584Y0173740D03*
X0062348Y0173740D03*
X0043664Y0164478D03*
X0023664Y0164478D03*
D14*
X0028151Y0145149D03*
X0028151Y0125464D03*
X0028151Y0105779D03*
D15*
X0060434Y0037913D03*
X0080119Y0028071D03*
X0060434Y0018228D03*
X0080119Y0008386D03*
X0170320Y0074527D03*
X0170320Y0094212D03*
X0190005Y0084370D03*
X0190005Y0064685D03*
D16*
X0197379Y0110945D03*
X0197379Y0133779D03*
D17*
X0187544Y0043399D02*
X0186855Y0042710D01*
X0186855Y0044992D01*
X0188469Y0046606D01*
X0190751Y0046606D01*
X0192365Y0044992D01*
X0192365Y0042710D01*
X0190751Y0041096D01*
X0188469Y0041096D01*
X0186855Y0042710D01*
X0187889Y0043138D01*
X0187889Y0044564D01*
X0188897Y0045572D01*
X0190323Y0045572D01*
X0191331Y0044564D01*
X0191331Y0043138D01*
X0190323Y0042130D01*
X0188897Y0042130D01*
X0187889Y0043138D01*
X0188922Y0043566D01*
X0188922Y0044136D01*
X0189325Y0044539D01*
X0189895Y0044539D01*
X0190298Y0044136D01*
X0190298Y0043566D01*
X0189895Y0043163D01*
X0189325Y0043163D01*
X0188922Y0043566D01*
X0180473Y0036328D02*
X0179784Y0035639D01*
X0179784Y0037921D01*
X0181398Y0039535D01*
X0183680Y0039535D01*
X0185294Y0037921D01*
X0185294Y0035639D01*
X0183680Y0034025D01*
X0181398Y0034025D01*
X0179784Y0035639D01*
X0180818Y0036067D01*
X0180818Y0037493D01*
X0181826Y0038501D01*
X0183252Y0038501D01*
X0184260Y0037493D01*
X0184260Y0036067D01*
X0183252Y0035059D01*
X0181826Y0035059D01*
X0180818Y0036067D01*
X0181851Y0036495D01*
X0181851Y0037065D01*
X0182254Y0037468D01*
X0182824Y0037468D01*
X0183227Y0037065D01*
X0183227Y0036495D01*
X0182824Y0036092D01*
X0182254Y0036092D01*
X0181851Y0036495D01*
X0173402Y0029257D02*
X0172713Y0028568D01*
X0172713Y0030850D01*
X0174327Y0032464D01*
X0176609Y0032464D01*
X0178223Y0030850D01*
X0178223Y0028568D01*
X0176609Y0026954D01*
X0174327Y0026954D01*
X0172713Y0028568D01*
X0173747Y0028996D01*
X0173747Y0030422D01*
X0174755Y0031430D01*
X0176181Y0031430D01*
X0177189Y0030422D01*
X0177189Y0028996D01*
X0176181Y0027988D01*
X0174755Y0027988D01*
X0173747Y0028996D01*
X0174780Y0029424D01*
X0174780Y0029994D01*
X0175183Y0030397D01*
X0175753Y0030397D01*
X0176156Y0029994D01*
X0176156Y0029424D01*
X0175753Y0029021D01*
X0175183Y0029021D01*
X0174780Y0029424D01*
X0166331Y0022185D02*
X0165642Y0021496D01*
X0165642Y0023778D01*
X0167256Y0025392D01*
X0169538Y0025392D01*
X0171152Y0023778D01*
X0171152Y0021496D01*
X0169538Y0019882D01*
X0167256Y0019882D01*
X0165642Y0021496D01*
X0166676Y0021924D01*
X0166676Y0023350D01*
X0167684Y0024358D01*
X0169110Y0024358D01*
X0170118Y0023350D01*
X0170118Y0021924D01*
X0169110Y0020916D01*
X0167684Y0020916D01*
X0166676Y0021924D01*
X0167709Y0022352D01*
X0167709Y0022922D01*
X0168112Y0023325D01*
X0168682Y0023325D01*
X0169085Y0022922D01*
X0169085Y0022352D01*
X0168682Y0021949D01*
X0168112Y0021949D01*
X0167709Y0022352D01*
X0159260Y0015114D02*
X0158571Y0014425D01*
X0158571Y0016707D01*
X0160185Y0018321D01*
X0162467Y0018321D01*
X0164081Y0016707D01*
X0164081Y0014425D01*
X0162467Y0012811D01*
X0160185Y0012811D01*
X0158571Y0014425D01*
X0159605Y0014853D01*
X0159605Y0016279D01*
X0160613Y0017287D01*
X0162039Y0017287D01*
X0163047Y0016279D01*
X0163047Y0014853D01*
X0162039Y0013845D01*
X0160613Y0013845D01*
X0159605Y0014853D01*
X0160638Y0015281D01*
X0160638Y0015851D01*
X0161041Y0016254D01*
X0161611Y0016254D01*
X0162014Y0015851D01*
X0162014Y0015281D01*
X0161611Y0014878D01*
X0161041Y0014878D01*
X0160638Y0015281D01*
X0166331Y0008043D02*
X0165642Y0007354D01*
X0165642Y0009636D01*
X0167256Y0011250D01*
X0169538Y0011250D01*
X0171152Y0009636D01*
X0171152Y0007354D01*
X0169538Y0005740D01*
X0167256Y0005740D01*
X0165642Y0007354D01*
X0166676Y0007782D01*
X0166676Y0009208D01*
X0167684Y0010216D01*
X0169110Y0010216D01*
X0170118Y0009208D01*
X0170118Y0007782D01*
X0169110Y0006774D01*
X0167684Y0006774D01*
X0166676Y0007782D01*
X0167709Y0008210D01*
X0167709Y0008780D01*
X0168112Y0009183D01*
X0168682Y0009183D01*
X0169085Y0008780D01*
X0169085Y0008210D01*
X0168682Y0007807D01*
X0168112Y0007807D01*
X0167709Y0008210D01*
X0173402Y0015114D02*
X0172713Y0014425D01*
X0172713Y0016707D01*
X0174327Y0018321D01*
X0176609Y0018321D01*
X0178223Y0016707D01*
X0178223Y0014425D01*
X0176609Y0012811D01*
X0174327Y0012811D01*
X0172713Y0014425D01*
X0173747Y0014853D01*
X0173747Y0016279D01*
X0174755Y0017287D01*
X0176181Y0017287D01*
X0177189Y0016279D01*
X0177189Y0014853D01*
X0176181Y0013845D01*
X0174755Y0013845D01*
X0173747Y0014853D01*
X0174780Y0015281D01*
X0174780Y0015851D01*
X0175183Y0016254D01*
X0175753Y0016254D01*
X0176156Y0015851D01*
X0176156Y0015281D01*
X0175753Y0014878D01*
X0175183Y0014878D01*
X0174780Y0015281D01*
X0180473Y0022185D02*
X0179784Y0021496D01*
X0179784Y0023778D01*
X0181398Y0025392D01*
X0183680Y0025392D01*
X0185294Y0023778D01*
X0185294Y0021496D01*
X0183680Y0019882D01*
X0181398Y0019882D01*
X0179784Y0021496D01*
X0180818Y0021924D01*
X0180818Y0023350D01*
X0181826Y0024358D01*
X0183252Y0024358D01*
X0184260Y0023350D01*
X0184260Y0021924D01*
X0183252Y0020916D01*
X0181826Y0020916D01*
X0180818Y0021924D01*
X0181851Y0022352D01*
X0181851Y0022922D01*
X0182254Y0023325D01*
X0182824Y0023325D01*
X0183227Y0022922D01*
X0183227Y0022352D01*
X0182824Y0021949D01*
X0182254Y0021949D01*
X0181851Y0022352D01*
X0187544Y0029257D02*
X0186855Y0028568D01*
X0186855Y0030850D01*
X0188469Y0032464D01*
X0190751Y0032464D01*
X0192365Y0030850D01*
X0192365Y0028568D01*
X0190751Y0026954D01*
X0188469Y0026954D01*
X0186855Y0028568D01*
X0187889Y0028996D01*
X0187889Y0030422D01*
X0188897Y0031430D01*
X0190323Y0031430D01*
X0191331Y0030422D01*
X0191331Y0028996D01*
X0190323Y0027988D01*
X0188897Y0027988D01*
X0187889Y0028996D01*
X0188922Y0029424D01*
X0188922Y0029994D01*
X0189325Y0030397D01*
X0189895Y0030397D01*
X0190298Y0029994D01*
X0190298Y0029424D01*
X0189895Y0029021D01*
X0189325Y0029021D01*
X0188922Y0029424D01*
X0194615Y0036328D02*
X0193926Y0035639D01*
X0193926Y0037921D01*
X0195540Y0039535D01*
X0197822Y0039535D01*
X0199436Y0037921D01*
X0199436Y0035639D01*
X0197822Y0034025D01*
X0195540Y0034025D01*
X0193926Y0035639D01*
X0194960Y0036067D01*
X0194960Y0037493D01*
X0195968Y0038501D01*
X0197394Y0038501D01*
X0198402Y0037493D01*
X0198402Y0036067D01*
X0197394Y0035059D01*
X0195968Y0035059D01*
X0194960Y0036067D01*
X0195993Y0036495D01*
X0195993Y0037065D01*
X0196396Y0037468D01*
X0196966Y0037468D01*
X0197369Y0037065D01*
X0197369Y0036495D01*
X0196966Y0036092D01*
X0196396Y0036092D01*
X0195993Y0036495D01*
D18*
X0088962Y0069240D03*
X0088962Y0076720D03*
D19*
X0028151Y0145149D02*
X0028151Y0145543D01*
D20*
X0028151Y0145149D02*
X0023664Y0145149D01*
X0023664Y0164478D01*
X0020997Y0145149D02*
X0028151Y0145149D01*
X0020997Y0145149D02*
X0010080Y0134232D01*
X0010080Y0088299D01*
X0010080Y0058299D01*
X0040080Y0058299D02*
X0040080Y0088299D01*
X0040080Y0093850D01*
X0028151Y0105779D01*
X0028151Y0125464D02*
X0037159Y0125464D01*
X0062348Y0150653D01*
X0062348Y0173740D01*
D21*
X0128600Y0116413D03*
X0085667Y0103571D03*
X0076367Y0045871D03*
X0094497Y0025134D03*
X0068612Y0012134D03*
X0049623Y0034083D03*
X0041497Y0034134D03*
X0163997Y0055394D03*
X0178163Y0051457D03*
X0201241Y0081449D03*
X0183804Y0107933D03*
X0190159Y0133779D03*
X0204332Y0133779D03*
D22*
X0197379Y0110945D02*
X0197379Y0107933D01*
X0183804Y0107933D01*
X0170667Y0107933D01*
X0170521Y0108079D01*
X0170175Y0108079D01*
X0170029Y0107933D01*
X0103529Y0107933D01*
X0083895Y0088299D01*
X0080080Y0088299D01*
X0070080Y0088299D01*
X0062509Y0080728D01*
X0062509Y0051071D01*
X0049623Y0038185D01*
X0049623Y0034083D01*
X0170320Y0094212D02*
X0170320Y0108071D01*
X0170320Y0134724D01*
X0172584Y0136988D01*
X0172584Y0143819D01*
X0170320Y0108071D02*
X0170458Y0107933D01*
X0170667Y0107933D01*
X0170320Y0094212D02*
X0183997Y0080535D01*
X0183997Y0067901D01*
X0178163Y0062067D01*
X0178163Y0051457D01*
X0193675Y0051457D01*
X0196681Y0048450D01*
X0196681Y0036780D01*
D23*
X0056257Y0022253D02*
X0023079Y0022253D01*
X0023045Y0022288D02*
X0023045Y0022288D01*
X0016511Y0030587D01*
X0015201Y0032640D01*
X0025395Y0042835D01*
X0038781Y0042835D01*
X0039153Y0043197D01*
X0044306Y0043197D01*
X0044333Y0043224D01*
X0045659Y0043773D01*
X0045698Y0043773D01*
X0055174Y0053250D01*
X0055340Y0053416D01*
X0056318Y0054394D01*
X0056346Y0054422D01*
X0056346Y0054461D01*
X0056895Y0055786D01*
X0056923Y0055814D01*
X0056923Y0089250D01*
X0065987Y0098315D01*
X0072046Y0098315D01*
X0072073Y0098342D01*
X0073399Y0098891D01*
X0073438Y0098891D01*
X0090021Y0115475D01*
X0090116Y0115570D01*
X0091155Y0116609D01*
X0091193Y0116646D01*
X0091193Y0116699D01*
X0091712Y0117953D01*
X0091749Y0117990D01*
X0091749Y0118787D01*
X0092037Y0119075D01*
X0092037Y0133676D01*
X0092129Y0133700D01*
X0094605Y0135130D01*
X0096627Y0137152D01*
X0098057Y0139628D01*
X0098797Y0142389D01*
X0098797Y0145248D01*
X0098057Y0148010D01*
X0096627Y0150486D01*
X0094605Y0152508D01*
X0092129Y0153937D01*
X0092037Y0153962D01*
X0092037Y0186110D01*
X0180917Y0186110D01*
X0184977Y0180923D01*
X0193375Y0168464D01*
X0200559Y0155268D01*
X0206466Y0141453D01*
X0208828Y0134626D01*
X0208828Y0057088D01*
X0208490Y0053447D01*
X0207066Y0046201D01*
X0204678Y0039213D01*
X0203257Y0036124D01*
X0202126Y0034992D01*
X0202126Y0039035D01*
X0200281Y0040880D01*
X0200281Y0049166D01*
X0199733Y0050489D01*
X0198720Y0051502D01*
X0195714Y0054508D01*
X0194391Y0055057D01*
X0181763Y0055057D01*
X0181763Y0060576D01*
X0184356Y0063168D01*
X0185088Y0061399D01*
X0186720Y0059768D01*
X0188852Y0058885D01*
X0191159Y0058885D01*
X0193291Y0059768D01*
X0194922Y0061399D01*
X0195805Y0063531D01*
X0195805Y0065839D01*
X0194922Y0067970D01*
X0193291Y0069602D01*
X0191159Y0070485D01*
X0188852Y0070485D01*
X0187597Y0069965D01*
X0187597Y0079089D01*
X0188852Y0078570D01*
X0191159Y0078570D01*
X0193291Y0079453D01*
X0194922Y0081085D01*
X0195805Y0083216D01*
X0195805Y0085524D01*
X0194922Y0087655D01*
X0193291Y0089287D01*
X0191159Y0090170D01*
X0188852Y0090170D01*
X0186720Y0089287D01*
X0185088Y0087655D01*
X0184205Y0085524D01*
X0184205Y0085419D01*
X0176120Y0093504D01*
X0176120Y0095366D01*
X0175237Y0097498D01*
X0173920Y0098815D01*
X0173920Y0104333D01*
X0181714Y0104333D01*
X0182984Y0103807D01*
X0184625Y0103807D01*
X0185895Y0104333D01*
X0192623Y0104333D01*
X0192623Y0102242D01*
X0193795Y0101071D01*
X0200964Y0101071D01*
X0202135Y0102242D01*
X0202135Y0119647D01*
X0200964Y0120819D01*
X0193795Y0120819D01*
X0192623Y0119647D01*
X0192623Y0111533D01*
X0185895Y0111533D01*
X0184625Y0112059D01*
X0182984Y0112059D01*
X0181714Y0111533D01*
X0173920Y0111533D01*
X0173920Y0133233D01*
X0174623Y0133936D01*
X0175636Y0134949D01*
X0176184Y0136272D01*
X0176184Y0139023D01*
X0177617Y0140456D01*
X0178521Y0142638D01*
X0178521Y0145000D01*
X0177617Y0147182D01*
X0175947Y0148852D01*
X0173765Y0149756D01*
X0171403Y0149756D01*
X0169221Y0148852D01*
X0167551Y0147182D01*
X0166647Y0145000D01*
X0166647Y0142638D01*
X0167551Y0140456D01*
X0168984Y0139023D01*
X0168984Y0138479D01*
X0167268Y0136764D01*
X0166720Y0135440D01*
X0166720Y0111533D01*
X0102813Y0111533D01*
X0101490Y0110985D01*
X0083640Y0093135D01*
X0083443Y0093332D01*
X0081261Y0094236D01*
X0078899Y0094236D01*
X0076717Y0093332D01*
X0075284Y0091899D01*
X0074876Y0091899D01*
X0073443Y0093332D01*
X0071261Y0094236D01*
X0068899Y0094236D01*
X0066717Y0093332D01*
X0065047Y0091662D01*
X0064143Y0089480D01*
X0064143Y0087453D01*
X0059457Y0082767D01*
X0058909Y0081444D01*
X0058909Y0052562D01*
X0047584Y0041237D01*
X0046571Y0040224D01*
X0046023Y0038901D01*
X0046023Y0036173D01*
X0045497Y0034903D01*
X0045497Y0033262D01*
X0046126Y0031745D01*
X0047286Y0030585D01*
X0048803Y0029957D01*
X0050444Y0029957D01*
X0051961Y0030585D01*
X0053121Y0031745D01*
X0053749Y0033262D01*
X0053749Y0034903D01*
X0053223Y0036173D01*
X0053223Y0036694D01*
X0054634Y0038105D01*
X0054634Y0036760D01*
X0055517Y0034628D01*
X0057149Y0032996D01*
X0059281Y0032113D01*
X0061588Y0032113D01*
X0063720Y0032996D01*
X0065351Y0034628D01*
X0066234Y0036760D01*
X0066234Y0039067D01*
X0066033Y0039552D01*
X0075252Y0048771D01*
X0080907Y0048771D01*
X0077746Y0045610D01*
X0077319Y0044580D01*
X0077319Y0033189D01*
X0076834Y0032988D01*
X0075202Y0031356D01*
X0074319Y0029224D01*
X0074319Y0026917D01*
X0075202Y0024785D01*
X0076834Y0023154D01*
X0078966Y0022271D01*
X0079907Y0022271D01*
X0079507Y0021871D01*
X0074992Y0021871D01*
X0073962Y0021444D01*
X0073175Y0020657D01*
X0073175Y0020657D01*
X0068778Y0016260D01*
X0067791Y0016260D01*
X0066274Y0015632D01*
X0065114Y0014471D01*
X0064486Y0012954D01*
X0064486Y0011313D01*
X0065114Y0009797D01*
X0066274Y0008636D01*
X0067791Y0008008D01*
X0069432Y0008008D01*
X0070949Y0008636D01*
X0072109Y0009797D01*
X0072738Y0011313D01*
X0072738Y0012300D01*
X0076708Y0016271D01*
X0081224Y0016271D01*
X0082253Y0016697D01*
X0089040Y0023485D01*
X0089467Y0024514D01*
X0089467Y0044911D01*
X0090197Y0045642D01*
X0090197Y0026077D01*
X0090371Y0025657D01*
X0090371Y0024313D01*
X0090690Y0023543D01*
X0090206Y0023543D01*
X0090206Y0005071D01*
X0084370Y0005071D01*
X0084727Y0005562D01*
X0085112Y0006318D01*
X0085374Y0007124D01*
X0085507Y0007962D01*
X0085507Y0008005D01*
X0080501Y0008005D01*
X0080501Y0008767D01*
X0085507Y0008767D01*
X0085507Y0008810D01*
X0085374Y0009647D01*
X0085112Y0010454D01*
X0084727Y0011209D01*
X0084229Y0011895D01*
X0083629Y0012495D01*
X0082943Y0012993D01*
X0082187Y0013378D01*
X0081381Y0013640D01*
X0080543Y0013773D01*
X0080501Y0013773D01*
X0080501Y0008767D01*
X0079738Y0008767D01*
X0079738Y0008005D01*
X0074732Y0008005D01*
X0074732Y0007962D01*
X0074865Y0007124D01*
X0075127Y0006318D01*
X0075512Y0005562D01*
X0075869Y0005071D01*
X0042188Y0005071D01*
X0038411Y0007831D01*
X0030369Y0014678D01*
X0023045Y0022288D01*
X0021814Y0023851D02*
X0058854Y0023851D01*
X0059281Y0024028D02*
X0057149Y0023145D01*
X0055517Y0021514D01*
X0054634Y0019382D01*
X0054634Y0017075D01*
X0055517Y0014943D01*
X0057149Y0013311D01*
X0059281Y0012428D01*
X0061588Y0012428D01*
X0063720Y0013311D01*
X0065351Y0014943D01*
X0066234Y0017075D01*
X0066234Y0019382D01*
X0065351Y0021514D01*
X0063720Y0023145D01*
X0061588Y0024028D01*
X0059281Y0024028D01*
X0062015Y0023851D02*
X0076136Y0023851D01*
X0074927Y0025450D02*
X0020555Y0025450D01*
X0019297Y0027048D02*
X0074319Y0027048D01*
X0074319Y0028647D02*
X0018038Y0028647D01*
X0016779Y0030245D02*
X0048105Y0030245D01*
X0046085Y0031844D02*
X0015709Y0031844D01*
X0016003Y0033442D02*
X0045497Y0033442D01*
X0045554Y0035041D02*
X0017601Y0035041D01*
X0019200Y0036639D02*
X0046023Y0036639D01*
X0046023Y0038238D02*
X0020798Y0038238D01*
X0022397Y0039837D02*
X0046411Y0039837D01*
X0047782Y0041435D02*
X0023995Y0041435D01*
X0038986Y0043034D02*
X0049381Y0043034D01*
X0050979Y0044632D02*
X0046556Y0044632D01*
X0048155Y0046231D02*
X0052578Y0046231D01*
X0054176Y0047829D02*
X0049753Y0047829D01*
X0051352Y0049428D02*
X0055775Y0049428D01*
X0057373Y0051026D02*
X0052950Y0051026D01*
X0054549Y0052625D02*
X0058909Y0052625D01*
X0058909Y0054223D02*
X0056147Y0054223D01*
X0056923Y0055822D02*
X0058909Y0055822D01*
X0058909Y0057420D02*
X0056923Y0057420D01*
X0056923Y0059019D02*
X0058909Y0059019D01*
X0058909Y0060617D02*
X0056923Y0060617D01*
X0056923Y0062216D02*
X0058909Y0062216D01*
X0058909Y0063814D02*
X0056923Y0063814D01*
X0056923Y0065413D02*
X0058909Y0065413D01*
X0058909Y0067011D02*
X0056923Y0067011D01*
X0056923Y0068610D02*
X0058909Y0068610D01*
X0058909Y0070208D02*
X0056923Y0070208D01*
X0056923Y0071807D02*
X0058909Y0071807D01*
X0058909Y0073405D02*
X0056923Y0073405D01*
X0056923Y0075004D02*
X0058909Y0075004D01*
X0058909Y0076602D02*
X0056923Y0076602D01*
X0056923Y0078201D02*
X0058909Y0078201D01*
X0058909Y0079799D02*
X0056923Y0079799D01*
X0056923Y0081398D02*
X0058909Y0081398D01*
X0059686Y0082996D02*
X0056923Y0082996D01*
X0056923Y0084595D02*
X0061285Y0084595D01*
X0062883Y0086193D02*
X0056923Y0086193D01*
X0056923Y0087792D02*
X0064143Y0087792D01*
X0064143Y0089390D02*
X0057063Y0089390D01*
X0058661Y0090989D02*
X0064768Y0090989D01*
X0065972Y0092587D02*
X0060260Y0092587D01*
X0061858Y0094186D02*
X0068778Y0094186D01*
X0071382Y0094186D02*
X0078778Y0094186D01*
X0075972Y0092587D02*
X0074188Y0092587D01*
X0073528Y0098981D02*
X0089486Y0098981D01*
X0087888Y0097383D02*
X0065055Y0097383D01*
X0063457Y0095784D02*
X0086289Y0095784D01*
X0084691Y0094186D02*
X0081382Y0094186D01*
X0075126Y0100580D02*
X0091085Y0100580D01*
X0092683Y0102178D02*
X0076725Y0102178D01*
X0078323Y0103777D02*
X0094282Y0103777D01*
X0095880Y0105375D02*
X0079922Y0105375D01*
X0081520Y0106974D02*
X0097479Y0106974D01*
X0099077Y0108572D02*
X0083119Y0108572D01*
X0084717Y0110171D02*
X0100676Y0110171D01*
X0091749Y0118164D02*
X0166720Y0118164D01*
X0166720Y0119762D02*
X0092037Y0119762D01*
X0092037Y0121361D02*
X0166720Y0121361D01*
X0166720Y0122959D02*
X0092037Y0122959D01*
X0092037Y0124558D02*
X0166720Y0124558D01*
X0166720Y0126156D02*
X0092037Y0126156D01*
X0092037Y0127755D02*
X0166720Y0127755D01*
X0166720Y0129353D02*
X0092037Y0129353D01*
X0092037Y0130952D02*
X0166720Y0130952D01*
X0166720Y0132550D02*
X0092037Y0132550D01*
X0092906Y0134149D02*
X0142026Y0134149D01*
X0142802Y0133700D02*
X0140326Y0135130D01*
X0138305Y0137152D01*
X0136875Y0139628D01*
X0136135Y0142389D01*
X0136135Y0145248D01*
X0136875Y0148010D01*
X0138305Y0150486D01*
X0140326Y0152508D01*
X0142802Y0153937D01*
X0145564Y0154677D01*
X0148423Y0154677D01*
X0151185Y0153937D01*
X0153661Y0152508D01*
X0155682Y0150486D01*
X0157112Y0148010D01*
X0157852Y0145248D01*
X0157852Y0142389D01*
X0157112Y0139628D01*
X0155682Y0137152D01*
X0153661Y0135130D01*
X0151185Y0133700D01*
X0148423Y0132961D01*
X0145564Y0132961D01*
X0142802Y0133700D01*
X0139709Y0135747D02*
X0095223Y0135747D01*
X0096739Y0137346D02*
X0138193Y0137346D01*
X0137270Y0138944D02*
X0097662Y0138944D01*
X0098302Y0140543D02*
X0136630Y0140543D01*
X0136202Y0142141D02*
X0098730Y0142141D01*
X0098797Y0143740D02*
X0136135Y0143740D01*
X0136159Y0145338D02*
X0098772Y0145338D01*
X0098344Y0146937D02*
X0136588Y0146937D01*
X0137178Y0148535D02*
X0097753Y0148535D01*
X0096830Y0150134D02*
X0138101Y0150134D01*
X0139551Y0151732D02*
X0095381Y0151732D01*
X0093180Y0153331D02*
X0141752Y0153331D01*
X0152235Y0153331D02*
X0201387Y0153331D01*
X0200704Y0154929D02*
X0092037Y0154929D01*
X0092037Y0156528D02*
X0199873Y0156528D01*
X0199003Y0158126D02*
X0092037Y0158126D01*
X0092037Y0159725D02*
X0198133Y0159725D01*
X0197262Y0161323D02*
X0092037Y0161323D01*
X0092037Y0162922D02*
X0196392Y0162922D01*
X0195522Y0164520D02*
X0092037Y0164520D01*
X0092037Y0166119D02*
X0194651Y0166119D01*
X0193781Y0167717D02*
X0092037Y0167717D01*
X0092037Y0169316D02*
X0169275Y0169316D01*
X0168985Y0169526D02*
X0169689Y0169015D01*
X0170463Y0168620D01*
X0171290Y0168352D01*
X0172149Y0168216D01*
X0172400Y0168216D01*
X0172400Y0173556D01*
X0172768Y0173556D01*
X0172768Y0168216D01*
X0173019Y0168216D01*
X0173878Y0168352D01*
X0174705Y0168620D01*
X0175479Y0169015D01*
X0176183Y0169526D01*
X0176798Y0170141D01*
X0177309Y0170845D01*
X0177704Y0171619D01*
X0177972Y0172446D01*
X0178108Y0173305D01*
X0178108Y0173556D01*
X0172768Y0173556D01*
X0172768Y0173924D01*
X0178108Y0173924D01*
X0178108Y0174175D01*
X0177972Y0175034D01*
X0177704Y0175861D01*
X0177309Y0176635D01*
X0176798Y0177339D01*
X0176183Y0177954D01*
X0175479Y0178465D01*
X0174705Y0178860D01*
X0173878Y0179128D01*
X0173019Y0179264D01*
X0172768Y0179264D01*
X0172768Y0173924D01*
X0172400Y0173924D01*
X0172400Y0173556D01*
X0167060Y0173556D01*
X0167060Y0173305D01*
X0167196Y0172446D01*
X0167464Y0171619D01*
X0167859Y0170845D01*
X0168370Y0170141D01*
X0168985Y0169526D01*
X0167823Y0170914D02*
X0092037Y0170914D01*
X0092037Y0172513D02*
X0167185Y0172513D01*
X0167060Y0173924D02*
X0172400Y0173924D01*
X0172400Y0179264D01*
X0172149Y0179264D01*
X0171290Y0179128D01*
X0170463Y0178860D01*
X0169689Y0178465D01*
X0168985Y0177954D01*
X0168370Y0177339D01*
X0167859Y0176635D01*
X0167464Y0175861D01*
X0167196Y0175034D01*
X0167060Y0174175D01*
X0167060Y0173924D01*
X0167060Y0174111D02*
X0092037Y0174111D01*
X0092037Y0175710D02*
X0167415Y0175710D01*
X0168348Y0177308D02*
X0092037Y0177308D01*
X0092037Y0178907D02*
X0170609Y0178907D01*
X0172400Y0178907D02*
X0172768Y0178907D01*
X0172768Y0177308D02*
X0172400Y0177308D01*
X0172400Y0175710D02*
X0172768Y0175710D01*
X0172768Y0174111D02*
X0172400Y0174111D01*
X0172400Y0172513D02*
X0172768Y0172513D01*
X0172768Y0170914D02*
X0172400Y0170914D01*
X0172400Y0169316D02*
X0172768Y0169316D01*
X0175893Y0169316D02*
X0192800Y0169316D01*
X0191723Y0170914D02*
X0177344Y0170914D01*
X0177983Y0172513D02*
X0190645Y0172513D01*
X0189568Y0174111D02*
X0178108Y0174111D01*
X0177753Y0175710D02*
X0188490Y0175710D01*
X0187413Y0177308D02*
X0176820Y0177308D01*
X0174559Y0178907D02*
X0186335Y0178907D01*
X0185258Y0180505D02*
X0092037Y0180505D01*
X0092037Y0182104D02*
X0184052Y0182104D01*
X0182801Y0183703D02*
X0092037Y0183703D01*
X0092037Y0185301D02*
X0181550Y0185301D01*
X0202071Y0151732D02*
X0154436Y0151732D01*
X0155885Y0150134D02*
X0202754Y0150134D01*
X0203438Y0148535D02*
X0176264Y0148535D01*
X0177719Y0146937D02*
X0204121Y0146937D01*
X0204805Y0145338D02*
X0178381Y0145338D01*
X0178521Y0143740D02*
X0205488Y0143740D01*
X0206172Y0142141D02*
X0201648Y0142141D01*
X0201614Y0142266D02*
X0201405Y0142628D01*
X0201110Y0142924D01*
X0200748Y0143133D01*
X0200344Y0143241D01*
X0197957Y0143241D01*
X0197957Y0134357D01*
X0201723Y0134357D01*
X0201723Y0141862D01*
X0201614Y0142266D01*
X0201723Y0140543D02*
X0206781Y0140543D01*
X0207334Y0138944D02*
X0201723Y0138944D01*
X0201723Y0137346D02*
X0207887Y0137346D01*
X0208440Y0135747D02*
X0201723Y0135747D01*
X0201723Y0133201D02*
X0201723Y0125696D01*
X0201614Y0125293D01*
X0201405Y0124931D01*
X0201110Y0124635D01*
X0200748Y0124426D01*
X0200344Y0124318D01*
X0197957Y0124318D01*
X0197957Y0133201D01*
X0196801Y0133201D01*
X0196801Y0124318D01*
X0194414Y0124318D01*
X0194011Y0124426D01*
X0193649Y0124635D01*
X0193353Y0124931D01*
X0193144Y0125293D01*
X0193036Y0125696D01*
X0193036Y0133201D01*
X0196801Y0133201D01*
X0196801Y0134357D01*
X0193036Y0134357D01*
X0193036Y0141862D01*
X0193144Y0142266D01*
X0193353Y0142628D01*
X0193649Y0142924D01*
X0194011Y0143133D01*
X0194414Y0143241D01*
X0196801Y0143241D01*
X0196801Y0134357D01*
X0197957Y0134357D01*
X0197957Y0133201D01*
X0201723Y0133201D01*
X0201723Y0132550D02*
X0208828Y0132550D01*
X0208828Y0130952D02*
X0201723Y0130952D01*
X0201723Y0129353D02*
X0208828Y0129353D01*
X0208828Y0127755D02*
X0201723Y0127755D01*
X0201723Y0126156D02*
X0208828Y0126156D01*
X0208828Y0124558D02*
X0200976Y0124558D01*
X0197957Y0124558D02*
X0196801Y0124558D01*
X0196801Y0126156D02*
X0197957Y0126156D01*
X0197957Y0127755D02*
X0196801Y0127755D01*
X0196801Y0129353D02*
X0197957Y0129353D01*
X0197957Y0130952D02*
X0196801Y0130952D01*
X0196801Y0132550D02*
X0197957Y0132550D01*
X0197957Y0134149D02*
X0208828Y0134149D01*
X0197957Y0135747D02*
X0196801Y0135747D01*
X0196801Y0134149D02*
X0174836Y0134149D01*
X0173920Y0132550D02*
X0193036Y0132550D01*
X0193036Y0130952D02*
X0173920Y0130952D01*
X0173920Y0129353D02*
X0193036Y0129353D01*
X0193036Y0127755D02*
X0173920Y0127755D01*
X0173920Y0126156D02*
X0193036Y0126156D01*
X0193783Y0124558D02*
X0173920Y0124558D01*
X0173920Y0122959D02*
X0208828Y0122959D01*
X0208828Y0121361D02*
X0173920Y0121361D01*
X0173920Y0119762D02*
X0192738Y0119762D01*
X0192623Y0118164D02*
X0173920Y0118164D01*
X0173920Y0116565D02*
X0192623Y0116565D01*
X0192623Y0114967D02*
X0173920Y0114967D01*
X0173920Y0113368D02*
X0192623Y0113368D01*
X0192623Y0111770D02*
X0185324Y0111770D01*
X0182285Y0111770D02*
X0173920Y0111770D01*
X0166720Y0111770D02*
X0086316Y0111770D01*
X0087914Y0113368D02*
X0166720Y0113368D01*
X0166720Y0114967D02*
X0089513Y0114967D01*
X0091111Y0116565D02*
X0166720Y0116565D01*
X0173920Y0103777D02*
X0192623Y0103777D01*
X0192687Y0102178D02*
X0173920Y0102178D01*
X0173920Y0100580D02*
X0208828Y0100580D01*
X0208828Y0102178D02*
X0202071Y0102178D01*
X0202135Y0103777D02*
X0208828Y0103777D01*
X0208828Y0105375D02*
X0202135Y0105375D01*
X0202135Y0106974D02*
X0208828Y0106974D01*
X0208828Y0108572D02*
X0202135Y0108572D01*
X0202135Y0110171D02*
X0208828Y0110171D01*
X0208828Y0111770D02*
X0202135Y0111770D01*
X0202135Y0113368D02*
X0208828Y0113368D01*
X0208828Y0114967D02*
X0202135Y0114967D01*
X0202135Y0116565D02*
X0208828Y0116565D01*
X0208828Y0118164D02*
X0202135Y0118164D01*
X0202020Y0119762D02*
X0208828Y0119762D01*
X0193036Y0135747D02*
X0175967Y0135747D01*
X0176184Y0137346D02*
X0193036Y0137346D01*
X0193036Y0138944D02*
X0176184Y0138944D01*
X0177653Y0140543D02*
X0193036Y0140543D01*
X0193111Y0142141D02*
X0178315Y0142141D01*
X0168984Y0138944D02*
X0156717Y0138944D01*
X0157357Y0140543D02*
X0167515Y0140543D01*
X0166853Y0142141D02*
X0157785Y0142141D01*
X0157852Y0143740D02*
X0166647Y0143740D01*
X0166787Y0145338D02*
X0157828Y0145338D01*
X0157399Y0146937D02*
X0167449Y0146937D01*
X0168904Y0148535D02*
X0156808Y0148535D01*
X0155794Y0137346D02*
X0167850Y0137346D01*
X0166847Y0135747D02*
X0154278Y0135747D01*
X0151961Y0134149D02*
X0166720Y0134149D01*
X0196801Y0137346D02*
X0197957Y0137346D01*
X0197957Y0138944D02*
X0196801Y0138944D01*
X0196801Y0140543D02*
X0197957Y0140543D01*
X0197957Y0142141D02*
X0196801Y0142141D01*
X0208828Y0098981D02*
X0173920Y0098981D01*
X0175285Y0097383D02*
X0208828Y0097383D01*
X0208828Y0095784D02*
X0175947Y0095784D01*
X0176120Y0094186D02*
X0208828Y0094186D01*
X0208828Y0092587D02*
X0177036Y0092587D01*
X0178635Y0090989D02*
X0208828Y0090989D01*
X0208828Y0089390D02*
X0193041Y0089390D01*
X0194786Y0087792D02*
X0208828Y0087792D01*
X0208828Y0086193D02*
X0195528Y0086193D01*
X0195805Y0084595D02*
X0208828Y0084595D01*
X0208828Y0082996D02*
X0195714Y0082996D01*
X0195052Y0081398D02*
X0208828Y0081398D01*
X0208828Y0079799D02*
X0193637Y0079799D01*
X0187597Y0078201D02*
X0208828Y0078201D01*
X0208828Y0076602D02*
X0187597Y0076602D01*
X0187597Y0075004D02*
X0208828Y0075004D01*
X0208828Y0073405D02*
X0187597Y0073405D01*
X0187597Y0071807D02*
X0208828Y0071807D01*
X0208828Y0070208D02*
X0191827Y0070208D01*
X0194283Y0068610D02*
X0208828Y0068610D01*
X0208828Y0067011D02*
X0195320Y0067011D01*
X0195805Y0065413D02*
X0208828Y0065413D01*
X0208828Y0063814D02*
X0195805Y0063814D01*
X0195260Y0062216D02*
X0208828Y0062216D01*
X0208828Y0060617D02*
X0194140Y0060617D01*
X0191482Y0059019D02*
X0208828Y0059019D01*
X0208828Y0057420D02*
X0181763Y0057420D01*
X0181763Y0055822D02*
X0208711Y0055822D01*
X0208562Y0054223D02*
X0195999Y0054223D01*
X0197598Y0052625D02*
X0208329Y0052625D01*
X0208015Y0051026D02*
X0199196Y0051026D01*
X0200173Y0049428D02*
X0207700Y0049428D01*
X0207386Y0047829D02*
X0200281Y0047829D01*
X0200281Y0046231D02*
X0207072Y0046231D01*
X0206530Y0044632D02*
X0200281Y0044632D01*
X0200281Y0043034D02*
X0205984Y0043034D01*
X0205437Y0041435D02*
X0200281Y0041435D01*
X0201324Y0039837D02*
X0204891Y0039837D01*
X0204229Y0038238D02*
X0202126Y0038238D01*
X0202126Y0036639D02*
X0203494Y0036639D01*
X0202175Y0035041D02*
X0202126Y0035041D01*
X0189610Y0044111D02*
X0189349Y0043851D01*
X0185921Y0047279D01*
X0184578Y0045935D01*
X0184578Y0042224D01*
X0180283Y0042224D01*
X0178268Y0040209D01*
X0178268Y0047331D01*
X0178983Y0047331D01*
X0180253Y0047857D01*
X0186499Y0047857D01*
X0186182Y0047539D01*
X0189610Y0044111D01*
X0189089Y0044632D02*
X0188568Y0044632D01*
X0187491Y0046231D02*
X0186969Y0046231D01*
X0186472Y0047829D02*
X0180187Y0047829D01*
X0178268Y0046231D02*
X0184873Y0046231D01*
X0184578Y0044632D02*
X0178268Y0044632D01*
X0178268Y0043034D02*
X0184578Y0043034D01*
X0179494Y0041435D02*
X0178268Y0041435D01*
X0175468Y0047163D02*
X0173997Y0048634D01*
X0173997Y0064134D01*
X0179997Y0070134D01*
X0179997Y0078496D01*
X0172497Y0085996D01*
X0168497Y0085996D01*
X0150860Y0103634D01*
X0137497Y0103634D01*
X0133682Y0099819D01*
X0133682Y0094291D01*
X0138682Y0094291D02*
X0138682Y0098819D01*
X0139997Y0100134D01*
X0149360Y0100134D01*
X0166997Y0082496D01*
X0170997Y0082496D01*
X0176497Y0076996D01*
X0176497Y0071634D01*
X0170997Y0066134D01*
X0170997Y0043634D01*
X0168997Y0041634D01*
X0168997Y0029234D01*
X0170197Y0028034D01*
X0175468Y0029709D02*
X0175468Y0047163D01*
X0167997Y0045634D02*
X0167997Y0066134D01*
X0163497Y0070634D01*
X0163497Y0075634D01*
X0158738Y0080394D01*
X0153997Y0080394D01*
X0153997Y0075394D02*
X0158738Y0075394D01*
X0159997Y0074134D01*
X0159997Y0047634D01*
X0156497Y0044134D01*
X0156497Y0020740D01*
X0159497Y0017395D02*
X0159497Y0042134D01*
X0163997Y0046634D01*
X0163997Y0055394D01*
X0167997Y0045634D02*
X0162497Y0040134D01*
X0162497Y0021434D01*
X0162997Y0020934D01*
X0159497Y0017395D02*
X0161326Y0015566D01*
X0181763Y0059019D02*
X0188529Y0059019D01*
X0185871Y0060617D02*
X0181804Y0060617D01*
X0183403Y0062216D02*
X0184750Y0062216D01*
X0187597Y0070208D02*
X0188184Y0070208D01*
X0184483Y0086193D02*
X0183430Y0086193D01*
X0181832Y0087792D02*
X0185225Y0087792D01*
X0186969Y0089390D02*
X0180233Y0089390D01*
X0108682Y0094291D02*
X0108682Y0098055D01*
X0106667Y0100071D01*
X0102060Y0100071D01*
X0083450Y0081461D01*
X0083450Y0064638D01*
X0086419Y0061669D01*
X0086419Y0054823D01*
X0083167Y0051571D01*
X0074092Y0051571D01*
X0060434Y0037913D01*
X0056703Y0033442D02*
X0053749Y0033442D01*
X0053692Y0035041D02*
X0055346Y0035041D01*
X0054684Y0036639D02*
X0053223Y0036639D01*
X0053162Y0031844D02*
X0075690Y0031844D01*
X0074742Y0030245D02*
X0051141Y0030245D01*
X0055161Y0020654D02*
X0024617Y0020654D01*
X0026156Y0019056D02*
X0054634Y0019056D01*
X0054634Y0017457D02*
X0027694Y0017457D01*
X0029233Y0015859D02*
X0055138Y0015859D01*
X0056200Y0014260D02*
X0030859Y0014260D01*
X0032737Y0012662D02*
X0058717Y0012662D01*
X0062152Y0012662D02*
X0064486Y0012662D01*
X0064589Y0011063D02*
X0034614Y0011063D01*
X0036491Y0009465D02*
X0065445Y0009465D01*
X0068612Y0012134D02*
X0075549Y0019071D01*
X0080667Y0019071D01*
X0086667Y0025071D01*
X0086667Y0046071D01*
X0092667Y0052071D01*
X0092667Y0053571D01*
X0094489Y0055394D01*
X0098367Y0055394D01*
X0098367Y0050394D02*
X0095489Y0050394D01*
X0092997Y0047901D01*
X0092997Y0026634D01*
X0094497Y0025134D01*
X0090371Y0025450D02*
X0089467Y0025450D01*
X0089467Y0027048D02*
X0090197Y0027048D01*
X0090197Y0028647D02*
X0089467Y0028647D01*
X0089467Y0030245D02*
X0090197Y0030245D01*
X0090197Y0031844D02*
X0089467Y0031844D01*
X0089467Y0033442D02*
X0090197Y0033442D01*
X0090197Y0035041D02*
X0089467Y0035041D01*
X0089467Y0036639D02*
X0090197Y0036639D01*
X0090197Y0038238D02*
X0089467Y0038238D01*
X0089467Y0039837D02*
X0090197Y0039837D01*
X0090197Y0041435D02*
X0089467Y0041435D01*
X0089467Y0043034D02*
X0090197Y0043034D01*
X0090197Y0044632D02*
X0089467Y0044632D01*
X0089962Y0053866D02*
X0080119Y0044023D01*
X0080119Y0028071D01*
X0079889Y0022253D02*
X0064612Y0022253D01*
X0065707Y0020654D02*
X0073172Y0020654D01*
X0071574Y0019056D02*
X0066234Y0019056D01*
X0066234Y0017457D02*
X0069975Y0017457D01*
X0066823Y0015859D02*
X0065731Y0015859D01*
X0065026Y0014260D02*
X0064669Y0014260D01*
X0071778Y0009465D02*
X0074836Y0009465D01*
X0074865Y0009647D02*
X0074732Y0008810D01*
X0074732Y0008767D01*
X0079738Y0008767D01*
X0079738Y0013773D01*
X0079695Y0013773D01*
X0078858Y0013640D01*
X0078051Y0013378D01*
X0077296Y0012993D01*
X0076610Y0012495D01*
X0076010Y0011895D01*
X0075512Y0011209D01*
X0075127Y0010454D01*
X0074865Y0009647D01*
X0075437Y0011063D02*
X0072634Y0011063D01*
X0073099Y0012662D02*
X0076839Y0012662D01*
X0074698Y0014260D02*
X0090206Y0014260D01*
X0090206Y0012662D02*
X0083399Y0012662D01*
X0084802Y0011063D02*
X0090206Y0011063D01*
X0090206Y0009465D02*
X0085403Y0009465D01*
X0085492Y0007866D02*
X0090206Y0007866D01*
X0090206Y0006268D02*
X0085087Y0006268D01*
X0080501Y0009465D02*
X0079738Y0009465D01*
X0079738Y0011063D02*
X0080501Y0011063D01*
X0080501Y0012662D02*
X0079738Y0012662D01*
X0076296Y0015859D02*
X0090206Y0015859D01*
X0090206Y0017457D02*
X0083013Y0017457D01*
X0084612Y0019056D02*
X0090206Y0019056D01*
X0090206Y0020654D02*
X0086210Y0020654D01*
X0087809Y0022253D02*
X0090206Y0022253D01*
X0090563Y0023851D02*
X0089192Y0023851D01*
X0077319Y0033442D02*
X0064166Y0033442D01*
X0065522Y0035041D02*
X0077319Y0035041D01*
X0077319Y0036639D02*
X0066185Y0036639D01*
X0066234Y0038238D02*
X0077319Y0038238D01*
X0077319Y0039837D02*
X0066317Y0039837D01*
X0067916Y0041435D02*
X0077319Y0041435D01*
X0077319Y0043034D02*
X0069514Y0043034D01*
X0071113Y0044632D02*
X0077341Y0044632D01*
X0078367Y0046231D02*
X0072711Y0046231D01*
X0074310Y0047829D02*
X0079965Y0047829D01*
X0089962Y0053866D02*
X0089962Y0068240D01*
X0088962Y0069240D01*
X0088962Y0076720D02*
X0088962Y0081098D01*
X0093257Y0085394D01*
X0098367Y0085394D01*
X0074747Y0007866D02*
X0038369Y0007866D01*
X0040550Y0006268D02*
X0075152Y0006268D01*
D24*
X0155997Y0011634D02*
X0155997Y0018401D01*
X0156497Y0018901D01*
X0156497Y0020740D01*
X0162997Y0020934D02*
X0168365Y0015566D01*
X0175468Y0015566D01*
X0175594Y0022637D02*
X0182539Y0022637D01*
X0175594Y0022637D02*
X0170197Y0028034D01*
X0155997Y0011634D02*
X0159136Y0008495D01*
X0168397Y0008495D01*
M02*
