%
M48
M72
T01C0.02362
T02C0.02756
T03C0.03937
T04C0.04724
T05C0.17717
%
T01
X41497Y34134
X49623Y34083
X68612Y12134
X94497Y25134
X76367Y45871
X85667Y103571
X128600Y116413
X183804Y107933
X190159Y133779
X204332Y133779
X201241Y81449
X178163Y51457
X163997Y55394
T02
X153997Y55394
X153997Y60394
X153997Y65394
X153997Y70394
X153997Y75394
X153997Y80394
X153997Y85394
X143682Y94291
X138682Y94291
X133682Y94291
X128682Y94291
X123682Y94291
X118682Y94291
X113682Y94291
X108682Y94291
X98367Y85394
X98367Y80394
X98367Y75394
X98367Y70394
X98367Y65394
X98367Y60394
X98367Y55394
X98367Y50394
X153997Y50394
T03
X175468Y29709
X182539Y36780
X189610Y43851
X196681Y36780
X189610Y29709
X182539Y22637
X175468Y15566
X168397Y22637
X161326Y15566
X168397Y8495
X62348Y113898
X43664Y164478
X23664Y164478
X62348Y173740
X172584Y173740
X172584Y143819
T04
X170320Y94212
X170320Y74527
X190005Y64685
X190005Y84370
X80080Y88299
X70080Y88299
X40080Y88299
X28151Y105779
X10080Y88299
X10080Y58299
X40080Y58299
X60434Y37913
X80119Y28071
X60434Y18228
X80119Y8386
X80080Y58299
X70080Y58299
X28151Y125464
X28151Y145149
T05
X87938Y143819
X146993Y143819
M30
