G75*
%MOIN*%
%OFA0B0*%
%FSLAX25Y25*%
%IPPOS*%
%LPD*%
%AMOC8*
5,1,8,0,0,1.08239X$1,22.5*
%
%ADD10C,0.00000*%
%ADD11C,0.04134*%
%ADD12C,0.09252*%
%ADD13C,0.08465*%
%ADD14C,0.10591*%
%ADD15C,0.08191*%
%ADD16R,0.06102X0.16339*%
%ADD17C,0.01496*%
%ADD18R,0.06496X0.05709*%
%ADD19C,0.18307*%
%ADD20C,0.04843*%
D10*
X0041537Y0003071D02*
X0090356Y0003071D01*
X0090546Y0003073D01*
X0090736Y0003080D01*
X0090926Y0003092D01*
X0091116Y0003108D01*
X0091305Y0003128D01*
X0091494Y0003154D01*
X0091682Y0003183D01*
X0091869Y0003218D01*
X0092055Y0003257D01*
X0092240Y0003300D01*
X0092425Y0003348D01*
X0092608Y0003400D01*
X0092789Y0003456D01*
X0092969Y0003517D01*
X0093148Y0003583D01*
X0093325Y0003652D01*
X0093501Y0003726D01*
X0093674Y0003804D01*
X0093846Y0003887D01*
X0094015Y0003973D01*
X0094183Y0004063D01*
X0094348Y0004158D01*
X0094511Y0004256D01*
X0094671Y0004359D01*
X0094829Y0004465D01*
X0094984Y0004575D01*
X0095137Y0004688D01*
X0095287Y0004806D01*
X0095433Y0004927D01*
X0095577Y0005051D01*
X0095718Y0005179D01*
X0095856Y0005310D01*
X0095991Y0005445D01*
X0096122Y0005583D01*
X0096250Y0005724D01*
X0096374Y0005868D01*
X0096495Y0006014D01*
X0096613Y0006164D01*
X0096726Y0006317D01*
X0096836Y0006472D01*
X0096942Y0006630D01*
X0097045Y0006790D01*
X0097143Y0006953D01*
X0097238Y0007118D01*
X0097328Y0007286D01*
X0097414Y0007455D01*
X0097497Y0007627D01*
X0097575Y0007800D01*
X0097649Y0007976D01*
X0097718Y0008153D01*
X0097784Y0008332D01*
X0097845Y0008512D01*
X0097901Y0008693D01*
X0097953Y0008876D01*
X0098001Y0009061D01*
X0098044Y0009246D01*
X0098083Y0009432D01*
X0098118Y0009619D01*
X0098147Y0009807D01*
X0098173Y0009996D01*
X0098193Y0010185D01*
X0098209Y0010375D01*
X0098221Y0010565D01*
X0098228Y0010755D01*
X0098230Y0010945D01*
X0098230Y0023161D01*
X0098232Y0023351D01*
X0098239Y0023541D01*
X0098251Y0023731D01*
X0098267Y0023921D01*
X0098287Y0024110D01*
X0098313Y0024299D01*
X0098342Y0024487D01*
X0098377Y0024674D01*
X0098416Y0024860D01*
X0098459Y0025045D01*
X0098507Y0025230D01*
X0098559Y0025413D01*
X0098615Y0025594D01*
X0098676Y0025774D01*
X0098742Y0025953D01*
X0098811Y0026130D01*
X0098885Y0026306D01*
X0098963Y0026479D01*
X0099046Y0026651D01*
X0099132Y0026820D01*
X0099222Y0026988D01*
X0099317Y0027153D01*
X0099415Y0027316D01*
X0099518Y0027476D01*
X0099624Y0027634D01*
X0099734Y0027789D01*
X0099847Y0027942D01*
X0099965Y0028092D01*
X0100086Y0028238D01*
X0100210Y0028382D01*
X0100338Y0028523D01*
X0100469Y0028661D01*
X0100604Y0028796D01*
X0100742Y0028927D01*
X0100883Y0029055D01*
X0101027Y0029179D01*
X0101173Y0029300D01*
X0101323Y0029418D01*
X0101476Y0029531D01*
X0101631Y0029641D01*
X0101789Y0029747D01*
X0101949Y0029850D01*
X0102112Y0029948D01*
X0102277Y0030043D01*
X0102445Y0030133D01*
X0102614Y0030219D01*
X0102786Y0030302D01*
X0102959Y0030380D01*
X0103135Y0030454D01*
X0103312Y0030523D01*
X0103491Y0030589D01*
X0103671Y0030650D01*
X0103852Y0030706D01*
X0104035Y0030758D01*
X0104220Y0030806D01*
X0104405Y0030849D01*
X0104591Y0030888D01*
X0104778Y0030923D01*
X0104966Y0030952D01*
X0105155Y0030978D01*
X0105344Y0030998D01*
X0105534Y0031014D01*
X0105724Y0031026D01*
X0105914Y0031033D01*
X0106104Y0031035D01*
X0146261Y0031035D01*
X0146451Y0031033D01*
X0146641Y0031026D01*
X0146831Y0031014D01*
X0147021Y0030998D01*
X0147210Y0030978D01*
X0147399Y0030952D01*
X0147587Y0030923D01*
X0147774Y0030888D01*
X0147960Y0030849D01*
X0148145Y0030806D01*
X0148330Y0030758D01*
X0148513Y0030706D01*
X0148694Y0030650D01*
X0148874Y0030589D01*
X0149053Y0030523D01*
X0149230Y0030454D01*
X0149406Y0030380D01*
X0149579Y0030302D01*
X0149751Y0030219D01*
X0149920Y0030133D01*
X0150088Y0030043D01*
X0150253Y0029948D01*
X0150416Y0029850D01*
X0150576Y0029747D01*
X0150734Y0029641D01*
X0150889Y0029531D01*
X0151042Y0029418D01*
X0151192Y0029300D01*
X0151338Y0029179D01*
X0151482Y0029055D01*
X0151623Y0028927D01*
X0151761Y0028796D01*
X0151896Y0028661D01*
X0152027Y0028523D01*
X0152155Y0028382D01*
X0152279Y0028238D01*
X0152400Y0028092D01*
X0152518Y0027942D01*
X0152631Y0027789D01*
X0152741Y0027634D01*
X0152847Y0027476D01*
X0152950Y0027316D01*
X0153048Y0027153D01*
X0153143Y0026988D01*
X0153233Y0026820D01*
X0153319Y0026651D01*
X0153402Y0026479D01*
X0153480Y0026306D01*
X0153554Y0026130D01*
X0153623Y0025953D01*
X0153689Y0025774D01*
X0153750Y0025594D01*
X0153806Y0025413D01*
X0153858Y0025230D01*
X0153906Y0025045D01*
X0153949Y0024860D01*
X0153988Y0024674D01*
X0154023Y0024487D01*
X0154052Y0024299D01*
X0154078Y0024110D01*
X0154098Y0023921D01*
X0154114Y0023731D01*
X0154126Y0023541D01*
X0154133Y0023351D01*
X0154135Y0023161D01*
X0154135Y0010945D01*
X0154137Y0010755D01*
X0154144Y0010565D01*
X0154156Y0010375D01*
X0154172Y0010185D01*
X0154192Y0009996D01*
X0154218Y0009807D01*
X0154247Y0009619D01*
X0154282Y0009432D01*
X0154321Y0009246D01*
X0154364Y0009061D01*
X0154412Y0008876D01*
X0154464Y0008693D01*
X0154520Y0008512D01*
X0154581Y0008332D01*
X0154647Y0008153D01*
X0154716Y0007976D01*
X0154790Y0007800D01*
X0154868Y0007627D01*
X0154951Y0007455D01*
X0155037Y0007286D01*
X0155127Y0007118D01*
X0155222Y0006953D01*
X0155320Y0006790D01*
X0155423Y0006630D01*
X0155529Y0006472D01*
X0155639Y0006317D01*
X0155752Y0006164D01*
X0155870Y0006014D01*
X0155991Y0005868D01*
X0156115Y0005724D01*
X0156243Y0005583D01*
X0156374Y0005445D01*
X0156509Y0005310D01*
X0156647Y0005179D01*
X0156788Y0005051D01*
X0156932Y0004927D01*
X0157078Y0004806D01*
X0157228Y0004688D01*
X0157381Y0004575D01*
X0157536Y0004465D01*
X0157694Y0004359D01*
X0157854Y0004256D01*
X0158017Y0004158D01*
X0158182Y0004063D01*
X0158350Y0003973D01*
X0158519Y0003887D01*
X0158691Y0003804D01*
X0158864Y0003726D01*
X0159040Y0003652D01*
X0159217Y0003583D01*
X0159396Y0003517D01*
X0159576Y0003456D01*
X0159757Y0003400D01*
X0159940Y0003348D01*
X0160125Y0003300D01*
X0160310Y0003257D01*
X0160496Y0003218D01*
X0160683Y0003183D01*
X0160871Y0003154D01*
X0161060Y0003128D01*
X0161249Y0003108D01*
X0161439Y0003092D01*
X0161629Y0003080D01*
X0161819Y0003073D01*
X0162009Y0003071D01*
X0171402Y0003071D01*
X0174186Y0004224D02*
X0204923Y0034961D01*
X0210828Y0057008D02*
X0210828Y0134961D01*
X0181891Y0188110D02*
X0053741Y0188110D01*
X0085726Y0177587D02*
X0085726Y0161839D01*
X0085725Y0161839D02*
X0085727Y0161753D01*
X0085732Y0161667D01*
X0085742Y0161582D01*
X0085755Y0161497D01*
X0085772Y0161413D01*
X0085792Y0161329D01*
X0085816Y0161247D01*
X0085844Y0161166D01*
X0085875Y0161085D01*
X0085909Y0161007D01*
X0085947Y0160930D01*
X0085989Y0160854D01*
X0086033Y0160781D01*
X0086081Y0160710D01*
X0086132Y0160640D01*
X0086186Y0160573D01*
X0086242Y0160509D01*
X0086302Y0160447D01*
X0086364Y0160387D01*
X0086428Y0160331D01*
X0086495Y0160277D01*
X0086565Y0160226D01*
X0086636Y0160178D01*
X0086710Y0160134D01*
X0086785Y0160092D01*
X0086862Y0160054D01*
X0086941Y0160020D01*
X0087021Y0159989D01*
X0087102Y0159961D01*
X0087184Y0159937D01*
X0087268Y0159917D01*
X0087352Y0159900D01*
X0087437Y0159887D01*
X0087522Y0159877D01*
X0087608Y0159872D01*
X0087694Y0159870D01*
X0087694Y0159871D02*
X0087780Y0159873D01*
X0087866Y0159878D01*
X0087951Y0159888D01*
X0088036Y0159901D01*
X0088120Y0159918D01*
X0088203Y0159938D01*
X0088286Y0159962D01*
X0088367Y0159990D01*
X0088447Y0160021D01*
X0088526Y0160055D01*
X0088603Y0160093D01*
X0088678Y0160135D01*
X0088751Y0160179D01*
X0088823Y0160227D01*
X0088892Y0160278D01*
X0088959Y0160331D01*
X0089024Y0160388D01*
X0089086Y0160447D01*
X0089145Y0160509D01*
X0089202Y0160574D01*
X0089255Y0160641D01*
X0089306Y0160710D01*
X0089354Y0160782D01*
X0089398Y0160855D01*
X0089440Y0160930D01*
X0089478Y0161007D01*
X0089512Y0161086D01*
X0089543Y0161166D01*
X0089571Y0161247D01*
X0089595Y0161330D01*
X0089615Y0161413D01*
X0089632Y0161497D01*
X0089645Y0161582D01*
X0089655Y0161667D01*
X0089660Y0161753D01*
X0089662Y0161839D01*
X0089663Y0161839D02*
X0089663Y0177587D01*
X0087694Y0179556D02*
X0087608Y0179554D01*
X0087522Y0179549D01*
X0087437Y0179539D01*
X0087352Y0179526D01*
X0087268Y0179509D01*
X0087184Y0179489D01*
X0087102Y0179465D01*
X0087021Y0179437D01*
X0086940Y0179406D01*
X0086862Y0179372D01*
X0086785Y0179334D01*
X0086710Y0179292D01*
X0086636Y0179248D01*
X0086565Y0179200D01*
X0086495Y0179149D01*
X0086428Y0179095D01*
X0086364Y0179039D01*
X0086302Y0178979D01*
X0086242Y0178917D01*
X0086186Y0178853D01*
X0086132Y0178786D01*
X0086081Y0178716D01*
X0086033Y0178645D01*
X0085989Y0178572D01*
X0085947Y0178496D01*
X0085909Y0178419D01*
X0085875Y0178341D01*
X0085844Y0178260D01*
X0085816Y0178179D01*
X0085792Y0178097D01*
X0085772Y0178013D01*
X0085755Y0177929D01*
X0085742Y0177844D01*
X0085732Y0177759D01*
X0085727Y0177673D01*
X0085725Y0177587D01*
X0087694Y0179556D02*
X0087780Y0179554D01*
X0087866Y0179549D01*
X0087951Y0179539D01*
X0088036Y0179526D01*
X0088120Y0179509D01*
X0088204Y0179489D01*
X0088286Y0179465D01*
X0088367Y0179437D01*
X0088448Y0179406D01*
X0088526Y0179372D01*
X0088603Y0179334D01*
X0088679Y0179292D01*
X0088752Y0179248D01*
X0088823Y0179200D01*
X0088893Y0179149D01*
X0088960Y0179095D01*
X0089024Y0179039D01*
X0089086Y0178979D01*
X0089146Y0178917D01*
X0089202Y0178853D01*
X0089256Y0178786D01*
X0089307Y0178716D01*
X0089355Y0178645D01*
X0089399Y0178571D01*
X0089441Y0178496D01*
X0089479Y0178419D01*
X0089513Y0178340D01*
X0089544Y0178260D01*
X0089572Y0178179D01*
X0089596Y0178097D01*
X0089616Y0178013D01*
X0089633Y0177929D01*
X0089646Y0177844D01*
X0089656Y0177759D01*
X0089661Y0177673D01*
X0089663Y0177587D01*
X0079080Y0143819D02*
X0079083Y0144036D01*
X0079091Y0144254D01*
X0079104Y0144471D01*
X0079123Y0144687D01*
X0079147Y0144903D01*
X0079176Y0145119D01*
X0079210Y0145333D01*
X0079250Y0145547D01*
X0079295Y0145760D01*
X0079345Y0145971D01*
X0079401Y0146182D01*
X0079461Y0146390D01*
X0079527Y0146598D01*
X0079598Y0146803D01*
X0079674Y0147007D01*
X0079754Y0147209D01*
X0079840Y0147409D01*
X0079930Y0147606D01*
X0080026Y0147802D01*
X0080126Y0147995D01*
X0080231Y0148185D01*
X0080340Y0148373D01*
X0080454Y0148558D01*
X0080573Y0148740D01*
X0080696Y0148920D01*
X0080823Y0149096D01*
X0080955Y0149269D01*
X0081091Y0149438D01*
X0081231Y0149605D01*
X0081375Y0149768D01*
X0081523Y0149927D01*
X0081674Y0150083D01*
X0081830Y0150234D01*
X0081989Y0150382D01*
X0082152Y0150526D01*
X0082319Y0150666D01*
X0082488Y0150802D01*
X0082661Y0150934D01*
X0082837Y0151061D01*
X0083017Y0151184D01*
X0083199Y0151303D01*
X0083384Y0151417D01*
X0083572Y0151526D01*
X0083762Y0151631D01*
X0083955Y0151731D01*
X0084151Y0151827D01*
X0084348Y0151917D01*
X0084548Y0152003D01*
X0084750Y0152083D01*
X0084954Y0152159D01*
X0085159Y0152230D01*
X0085367Y0152296D01*
X0085575Y0152356D01*
X0085786Y0152412D01*
X0085997Y0152462D01*
X0086210Y0152507D01*
X0086424Y0152547D01*
X0086638Y0152581D01*
X0086854Y0152610D01*
X0087070Y0152634D01*
X0087286Y0152653D01*
X0087503Y0152666D01*
X0087721Y0152674D01*
X0087938Y0152677D01*
X0088155Y0152674D01*
X0088373Y0152666D01*
X0088590Y0152653D01*
X0088806Y0152634D01*
X0089022Y0152610D01*
X0089238Y0152581D01*
X0089452Y0152547D01*
X0089666Y0152507D01*
X0089879Y0152462D01*
X0090090Y0152412D01*
X0090301Y0152356D01*
X0090509Y0152296D01*
X0090717Y0152230D01*
X0090922Y0152159D01*
X0091126Y0152083D01*
X0091328Y0152003D01*
X0091528Y0151917D01*
X0091725Y0151827D01*
X0091921Y0151731D01*
X0092114Y0151631D01*
X0092304Y0151526D01*
X0092492Y0151417D01*
X0092677Y0151303D01*
X0092859Y0151184D01*
X0093039Y0151061D01*
X0093215Y0150934D01*
X0093388Y0150802D01*
X0093557Y0150666D01*
X0093724Y0150526D01*
X0093887Y0150382D01*
X0094046Y0150234D01*
X0094202Y0150083D01*
X0094353Y0149927D01*
X0094501Y0149768D01*
X0094645Y0149605D01*
X0094785Y0149438D01*
X0094921Y0149269D01*
X0095053Y0149096D01*
X0095180Y0148920D01*
X0095303Y0148740D01*
X0095422Y0148558D01*
X0095536Y0148373D01*
X0095645Y0148185D01*
X0095750Y0147995D01*
X0095850Y0147802D01*
X0095946Y0147606D01*
X0096036Y0147409D01*
X0096122Y0147209D01*
X0096202Y0147007D01*
X0096278Y0146803D01*
X0096349Y0146598D01*
X0096415Y0146390D01*
X0096475Y0146182D01*
X0096531Y0145971D01*
X0096581Y0145760D01*
X0096626Y0145547D01*
X0096666Y0145333D01*
X0096700Y0145119D01*
X0096729Y0144903D01*
X0096753Y0144687D01*
X0096772Y0144471D01*
X0096785Y0144254D01*
X0096793Y0144036D01*
X0096796Y0143819D01*
X0096793Y0143602D01*
X0096785Y0143384D01*
X0096772Y0143167D01*
X0096753Y0142951D01*
X0096729Y0142735D01*
X0096700Y0142519D01*
X0096666Y0142305D01*
X0096626Y0142091D01*
X0096581Y0141878D01*
X0096531Y0141667D01*
X0096475Y0141456D01*
X0096415Y0141248D01*
X0096349Y0141040D01*
X0096278Y0140835D01*
X0096202Y0140631D01*
X0096122Y0140429D01*
X0096036Y0140229D01*
X0095946Y0140032D01*
X0095850Y0139836D01*
X0095750Y0139643D01*
X0095645Y0139453D01*
X0095536Y0139265D01*
X0095422Y0139080D01*
X0095303Y0138898D01*
X0095180Y0138718D01*
X0095053Y0138542D01*
X0094921Y0138369D01*
X0094785Y0138200D01*
X0094645Y0138033D01*
X0094501Y0137870D01*
X0094353Y0137711D01*
X0094202Y0137555D01*
X0094046Y0137404D01*
X0093887Y0137256D01*
X0093724Y0137112D01*
X0093557Y0136972D01*
X0093388Y0136836D01*
X0093215Y0136704D01*
X0093039Y0136577D01*
X0092859Y0136454D01*
X0092677Y0136335D01*
X0092492Y0136221D01*
X0092304Y0136112D01*
X0092114Y0136007D01*
X0091921Y0135907D01*
X0091725Y0135811D01*
X0091528Y0135721D01*
X0091328Y0135635D01*
X0091126Y0135555D01*
X0090922Y0135479D01*
X0090717Y0135408D01*
X0090509Y0135342D01*
X0090301Y0135282D01*
X0090090Y0135226D01*
X0089879Y0135176D01*
X0089666Y0135131D01*
X0089452Y0135091D01*
X0089238Y0135057D01*
X0089022Y0135028D01*
X0088806Y0135004D01*
X0088590Y0134985D01*
X0088373Y0134972D01*
X0088155Y0134964D01*
X0087938Y0134961D01*
X0087721Y0134964D01*
X0087503Y0134972D01*
X0087286Y0134985D01*
X0087070Y0135004D01*
X0086854Y0135028D01*
X0086638Y0135057D01*
X0086424Y0135091D01*
X0086210Y0135131D01*
X0085997Y0135176D01*
X0085786Y0135226D01*
X0085575Y0135282D01*
X0085367Y0135342D01*
X0085159Y0135408D01*
X0084954Y0135479D01*
X0084750Y0135555D01*
X0084548Y0135635D01*
X0084348Y0135721D01*
X0084151Y0135811D01*
X0083955Y0135907D01*
X0083762Y0136007D01*
X0083572Y0136112D01*
X0083384Y0136221D01*
X0083199Y0136335D01*
X0083017Y0136454D01*
X0082837Y0136577D01*
X0082661Y0136704D01*
X0082488Y0136836D01*
X0082319Y0136972D01*
X0082152Y0137112D01*
X0081989Y0137256D01*
X0081830Y0137404D01*
X0081674Y0137555D01*
X0081523Y0137711D01*
X0081375Y0137870D01*
X0081231Y0138033D01*
X0081091Y0138200D01*
X0080955Y0138369D01*
X0080823Y0138542D01*
X0080696Y0138718D01*
X0080573Y0138898D01*
X0080454Y0139080D01*
X0080340Y0139265D01*
X0080231Y0139453D01*
X0080126Y0139643D01*
X0080026Y0139836D01*
X0079930Y0140032D01*
X0079840Y0140229D01*
X0079754Y0140429D01*
X0079674Y0140631D01*
X0079598Y0140835D01*
X0079527Y0141040D01*
X0079461Y0141248D01*
X0079401Y0141456D01*
X0079345Y0141667D01*
X0079295Y0141878D01*
X0079250Y0142091D01*
X0079210Y0142305D01*
X0079176Y0142519D01*
X0079147Y0142735D01*
X0079123Y0142951D01*
X0079104Y0143167D01*
X0079091Y0143384D01*
X0079083Y0143602D01*
X0079080Y0143819D01*
X0053741Y0188111D02*
X0052396Y0188036D01*
X0051054Y0187928D01*
X0049714Y0187788D01*
X0048378Y0187615D01*
X0047047Y0187411D01*
X0045721Y0187174D01*
X0044402Y0186905D01*
X0043089Y0186604D01*
X0041784Y0186272D01*
X0040487Y0185908D01*
X0039199Y0185513D01*
X0037922Y0185086D01*
X0036655Y0184629D01*
X0035399Y0184142D01*
X0034156Y0183624D01*
X0032925Y0183076D01*
X0031709Y0182499D01*
X0030506Y0181893D01*
X0029319Y0181257D01*
X0028147Y0180593D01*
X0026991Y0179901D01*
X0025853Y0179181D01*
X0024733Y0178434D01*
X0023630Y0177660D01*
X0022547Y0176859D01*
X0021484Y0176033D01*
X0020441Y0175181D01*
X0019419Y0174304D01*
X0018418Y0173402D01*
X0017439Y0172477D01*
X0016483Y0171528D01*
X0015551Y0170556D01*
X0014642Y0169563D01*
X0013757Y0168547D01*
X0012898Y0167510D01*
X0012063Y0166453D01*
X0011255Y0165376D01*
X0010472Y0164280D01*
X0009717Y0163165D01*
X0008988Y0162032D01*
X0008288Y0160881D01*
X0007615Y0159715D01*
X0006971Y0158532D01*
X0006355Y0157334D01*
X0005769Y0156121D01*
X0005212Y0154895D01*
X0004685Y0153656D01*
X0004188Y0152404D01*
X0003722Y0151140D01*
X0003286Y0149866D01*
X0002882Y0148581D01*
X0002508Y0147287D01*
X0002166Y0145985D01*
X0002167Y0145984D02*
X0002167Y0053071D01*
X0028938Y0049134D02*
X0042718Y0049134D01*
X0050986Y0057401D01*
X0050986Y0090838D01*
X0051562Y0092230D02*
X0063007Y0103675D01*
X0064399Y0104252D02*
X0070458Y0104252D01*
X0086437Y0120230D01*
X0087781Y0120787D02*
X0087864Y0120785D01*
X0087947Y0120780D01*
X0088029Y0120771D01*
X0088111Y0120758D01*
X0088192Y0120742D01*
X0088273Y0120722D01*
X0088353Y0120699D01*
X0088431Y0120672D01*
X0088508Y0120642D01*
X0088584Y0120609D01*
X0088659Y0120572D01*
X0088732Y0120532D01*
X0088802Y0120489D01*
X0088871Y0120443D01*
X0088938Y0120394D01*
X0089003Y0120342D01*
X0089065Y0120288D01*
X0089125Y0120230D01*
X0089193Y0120163D01*
X0089192Y0120163D02*
X0089250Y0120103D01*
X0089304Y0120041D01*
X0089356Y0119976D01*
X0089405Y0119909D01*
X0089451Y0119840D01*
X0089494Y0119770D01*
X0089534Y0119697D01*
X0089571Y0119622D01*
X0089604Y0119546D01*
X0089634Y0119469D01*
X0089661Y0119391D01*
X0089684Y0119311D01*
X0089704Y0119230D01*
X0089720Y0119149D01*
X0089733Y0119067D01*
X0089742Y0118985D01*
X0089747Y0118902D01*
X0089749Y0118819D01*
X0089193Y0117475D02*
X0072609Y0100891D01*
X0071217Y0100315D02*
X0065159Y0100315D01*
X0054923Y0090079D01*
X0054923Y0056642D01*
X0054346Y0055250D02*
X0044869Y0045773D01*
X0043477Y0045197D02*
X0028938Y0045197D01*
X0028938Y0045196D02*
X0028852Y0045198D01*
X0028766Y0045203D01*
X0028681Y0045213D01*
X0028596Y0045226D01*
X0028512Y0045243D01*
X0028428Y0045263D01*
X0028346Y0045287D01*
X0028265Y0045315D01*
X0028184Y0045346D01*
X0028106Y0045380D01*
X0028029Y0045418D01*
X0027953Y0045460D01*
X0027880Y0045504D01*
X0027809Y0045552D01*
X0027739Y0045603D01*
X0027672Y0045657D01*
X0027608Y0045713D01*
X0027546Y0045773D01*
X0027486Y0045835D01*
X0027430Y0045899D01*
X0027376Y0045966D01*
X0027325Y0046036D01*
X0027277Y0046107D01*
X0027233Y0046181D01*
X0027191Y0046256D01*
X0027153Y0046333D01*
X0027119Y0046411D01*
X0027088Y0046492D01*
X0027060Y0046573D01*
X0027036Y0046655D01*
X0027016Y0046739D01*
X0026999Y0046823D01*
X0026986Y0046908D01*
X0026976Y0046993D01*
X0026971Y0047079D01*
X0026969Y0047165D01*
X0026971Y0047251D01*
X0026976Y0047337D01*
X0026986Y0047422D01*
X0026999Y0047507D01*
X0027016Y0047591D01*
X0027036Y0047675D01*
X0027060Y0047757D01*
X0027088Y0047838D01*
X0027119Y0047919D01*
X0027153Y0047997D01*
X0027191Y0048074D01*
X0027233Y0048150D01*
X0027277Y0048223D01*
X0027325Y0048294D01*
X0027376Y0048364D01*
X0027430Y0048431D01*
X0027486Y0048495D01*
X0027546Y0048557D01*
X0027608Y0048617D01*
X0027672Y0048673D01*
X0027739Y0048727D01*
X0027809Y0048778D01*
X0027880Y0048826D01*
X0027954Y0048870D01*
X0028029Y0048912D01*
X0028106Y0048950D01*
X0028184Y0048984D01*
X0028265Y0049015D01*
X0028346Y0049043D01*
X0028428Y0049067D01*
X0028512Y0049087D01*
X0028596Y0049104D01*
X0028681Y0049117D01*
X0028766Y0049127D01*
X0028852Y0049132D01*
X0028938Y0049134D01*
X0043477Y0045196D02*
X0043563Y0045198D01*
X0043649Y0045203D01*
X0043734Y0045213D01*
X0043819Y0045226D01*
X0043903Y0045243D01*
X0043987Y0045263D01*
X0044069Y0045287D01*
X0044150Y0045315D01*
X0044231Y0045346D01*
X0044309Y0045380D01*
X0044386Y0045418D01*
X0044462Y0045460D01*
X0044535Y0045504D01*
X0044606Y0045552D01*
X0044676Y0045603D01*
X0044743Y0045657D01*
X0044807Y0045713D01*
X0044869Y0045773D01*
X0054346Y0055250D02*
X0054406Y0055312D01*
X0054462Y0055376D01*
X0054516Y0055443D01*
X0054567Y0055513D01*
X0054615Y0055584D01*
X0054659Y0055657D01*
X0054701Y0055733D01*
X0054739Y0055810D01*
X0054773Y0055888D01*
X0054804Y0055969D01*
X0054832Y0056050D01*
X0054856Y0056132D01*
X0054876Y0056216D01*
X0054893Y0056300D01*
X0054906Y0056385D01*
X0054916Y0056470D01*
X0054921Y0056556D01*
X0054923Y0056642D01*
X0210827Y0134961D02*
X0209626Y0138571D01*
X0208339Y0142151D01*
X0206969Y0145701D01*
X0205514Y0149217D01*
X0203977Y0152697D01*
X0202358Y0156140D01*
X0200659Y0159544D01*
X0198879Y0162907D01*
X0197020Y0166227D01*
X0195084Y0169502D01*
X0193070Y0172731D01*
X0190981Y0175911D01*
X0188817Y0179040D01*
X0186580Y0182118D01*
X0184271Y0185142D01*
X0181891Y0188110D01*
X0138135Y0143819D02*
X0138138Y0144036D01*
X0138146Y0144254D01*
X0138159Y0144471D01*
X0138178Y0144687D01*
X0138202Y0144903D01*
X0138231Y0145119D01*
X0138265Y0145333D01*
X0138305Y0145547D01*
X0138350Y0145760D01*
X0138400Y0145971D01*
X0138456Y0146182D01*
X0138516Y0146390D01*
X0138582Y0146598D01*
X0138653Y0146803D01*
X0138729Y0147007D01*
X0138809Y0147209D01*
X0138895Y0147409D01*
X0138985Y0147606D01*
X0139081Y0147802D01*
X0139181Y0147995D01*
X0139286Y0148185D01*
X0139395Y0148373D01*
X0139509Y0148558D01*
X0139628Y0148740D01*
X0139751Y0148920D01*
X0139878Y0149096D01*
X0140010Y0149269D01*
X0140146Y0149438D01*
X0140286Y0149605D01*
X0140430Y0149768D01*
X0140578Y0149927D01*
X0140729Y0150083D01*
X0140885Y0150234D01*
X0141044Y0150382D01*
X0141207Y0150526D01*
X0141374Y0150666D01*
X0141543Y0150802D01*
X0141716Y0150934D01*
X0141892Y0151061D01*
X0142072Y0151184D01*
X0142254Y0151303D01*
X0142439Y0151417D01*
X0142627Y0151526D01*
X0142817Y0151631D01*
X0143010Y0151731D01*
X0143206Y0151827D01*
X0143403Y0151917D01*
X0143603Y0152003D01*
X0143805Y0152083D01*
X0144009Y0152159D01*
X0144214Y0152230D01*
X0144422Y0152296D01*
X0144630Y0152356D01*
X0144841Y0152412D01*
X0145052Y0152462D01*
X0145265Y0152507D01*
X0145479Y0152547D01*
X0145693Y0152581D01*
X0145909Y0152610D01*
X0146125Y0152634D01*
X0146341Y0152653D01*
X0146558Y0152666D01*
X0146776Y0152674D01*
X0146993Y0152677D01*
X0147210Y0152674D01*
X0147428Y0152666D01*
X0147645Y0152653D01*
X0147861Y0152634D01*
X0148077Y0152610D01*
X0148293Y0152581D01*
X0148507Y0152547D01*
X0148721Y0152507D01*
X0148934Y0152462D01*
X0149145Y0152412D01*
X0149356Y0152356D01*
X0149564Y0152296D01*
X0149772Y0152230D01*
X0149977Y0152159D01*
X0150181Y0152083D01*
X0150383Y0152003D01*
X0150583Y0151917D01*
X0150780Y0151827D01*
X0150976Y0151731D01*
X0151169Y0151631D01*
X0151359Y0151526D01*
X0151547Y0151417D01*
X0151732Y0151303D01*
X0151914Y0151184D01*
X0152094Y0151061D01*
X0152270Y0150934D01*
X0152443Y0150802D01*
X0152612Y0150666D01*
X0152779Y0150526D01*
X0152942Y0150382D01*
X0153101Y0150234D01*
X0153257Y0150083D01*
X0153408Y0149927D01*
X0153556Y0149768D01*
X0153700Y0149605D01*
X0153840Y0149438D01*
X0153976Y0149269D01*
X0154108Y0149096D01*
X0154235Y0148920D01*
X0154358Y0148740D01*
X0154477Y0148558D01*
X0154591Y0148373D01*
X0154700Y0148185D01*
X0154805Y0147995D01*
X0154905Y0147802D01*
X0155001Y0147606D01*
X0155091Y0147409D01*
X0155177Y0147209D01*
X0155257Y0147007D01*
X0155333Y0146803D01*
X0155404Y0146598D01*
X0155470Y0146390D01*
X0155530Y0146182D01*
X0155586Y0145971D01*
X0155636Y0145760D01*
X0155681Y0145547D01*
X0155721Y0145333D01*
X0155755Y0145119D01*
X0155784Y0144903D01*
X0155808Y0144687D01*
X0155827Y0144471D01*
X0155840Y0144254D01*
X0155848Y0144036D01*
X0155851Y0143819D01*
X0155848Y0143602D01*
X0155840Y0143384D01*
X0155827Y0143167D01*
X0155808Y0142951D01*
X0155784Y0142735D01*
X0155755Y0142519D01*
X0155721Y0142305D01*
X0155681Y0142091D01*
X0155636Y0141878D01*
X0155586Y0141667D01*
X0155530Y0141456D01*
X0155470Y0141248D01*
X0155404Y0141040D01*
X0155333Y0140835D01*
X0155257Y0140631D01*
X0155177Y0140429D01*
X0155091Y0140229D01*
X0155001Y0140032D01*
X0154905Y0139836D01*
X0154805Y0139643D01*
X0154700Y0139453D01*
X0154591Y0139265D01*
X0154477Y0139080D01*
X0154358Y0138898D01*
X0154235Y0138718D01*
X0154108Y0138542D01*
X0153976Y0138369D01*
X0153840Y0138200D01*
X0153700Y0138033D01*
X0153556Y0137870D01*
X0153408Y0137711D01*
X0153257Y0137555D01*
X0153101Y0137404D01*
X0152942Y0137256D01*
X0152779Y0137112D01*
X0152612Y0136972D01*
X0152443Y0136836D01*
X0152270Y0136704D01*
X0152094Y0136577D01*
X0151914Y0136454D01*
X0151732Y0136335D01*
X0151547Y0136221D01*
X0151359Y0136112D01*
X0151169Y0136007D01*
X0150976Y0135907D01*
X0150780Y0135811D01*
X0150583Y0135721D01*
X0150383Y0135635D01*
X0150181Y0135555D01*
X0149977Y0135479D01*
X0149772Y0135408D01*
X0149564Y0135342D01*
X0149356Y0135282D01*
X0149145Y0135226D01*
X0148934Y0135176D01*
X0148721Y0135131D01*
X0148507Y0135091D01*
X0148293Y0135057D01*
X0148077Y0135028D01*
X0147861Y0135004D01*
X0147645Y0134985D01*
X0147428Y0134972D01*
X0147210Y0134964D01*
X0146993Y0134961D01*
X0146776Y0134964D01*
X0146558Y0134972D01*
X0146341Y0134985D01*
X0146125Y0135004D01*
X0145909Y0135028D01*
X0145693Y0135057D01*
X0145479Y0135091D01*
X0145265Y0135131D01*
X0145052Y0135176D01*
X0144841Y0135226D01*
X0144630Y0135282D01*
X0144422Y0135342D01*
X0144214Y0135408D01*
X0144009Y0135479D01*
X0143805Y0135555D01*
X0143603Y0135635D01*
X0143403Y0135721D01*
X0143206Y0135811D01*
X0143010Y0135907D01*
X0142817Y0136007D01*
X0142627Y0136112D01*
X0142439Y0136221D01*
X0142254Y0136335D01*
X0142072Y0136454D01*
X0141892Y0136577D01*
X0141716Y0136704D01*
X0141543Y0136836D01*
X0141374Y0136972D01*
X0141207Y0137112D01*
X0141044Y0137256D01*
X0140885Y0137404D01*
X0140729Y0137555D01*
X0140578Y0137711D01*
X0140430Y0137870D01*
X0140286Y0138033D01*
X0140146Y0138200D01*
X0140010Y0138369D01*
X0139878Y0138542D01*
X0139751Y0138718D01*
X0139628Y0138898D01*
X0139509Y0139080D01*
X0139395Y0139265D01*
X0139286Y0139453D01*
X0139181Y0139643D01*
X0139081Y0139836D01*
X0138985Y0140032D01*
X0138895Y0140229D01*
X0138809Y0140429D01*
X0138729Y0140631D01*
X0138653Y0140835D01*
X0138582Y0141040D01*
X0138516Y0141248D01*
X0138456Y0141456D01*
X0138400Y0141667D01*
X0138350Y0141878D01*
X0138305Y0142091D01*
X0138265Y0142305D01*
X0138231Y0142519D01*
X0138202Y0142735D01*
X0138178Y0142951D01*
X0138159Y0143167D01*
X0138146Y0143384D01*
X0138138Y0143602D01*
X0138135Y0143819D01*
X0089749Y0118819D02*
X0089747Y0118736D01*
X0089742Y0118653D01*
X0089733Y0118571D01*
X0089720Y0118489D01*
X0089704Y0118408D01*
X0089684Y0118327D01*
X0089661Y0118247D01*
X0089634Y0118169D01*
X0089604Y0118092D01*
X0089571Y0118016D01*
X0089534Y0117941D01*
X0089494Y0117868D01*
X0089451Y0117798D01*
X0089405Y0117729D01*
X0089356Y0117662D01*
X0089304Y0117597D01*
X0089250Y0117535D01*
X0089192Y0117475D01*
X0087781Y0120787D02*
X0087698Y0120785D01*
X0087615Y0120780D01*
X0087533Y0120771D01*
X0087451Y0120758D01*
X0087370Y0120742D01*
X0087289Y0120722D01*
X0087209Y0120699D01*
X0087131Y0120672D01*
X0087054Y0120642D01*
X0086978Y0120609D01*
X0086903Y0120572D01*
X0086830Y0120532D01*
X0086760Y0120489D01*
X0086691Y0120443D01*
X0086624Y0120394D01*
X0086559Y0120342D01*
X0086497Y0120288D01*
X0086437Y0120230D01*
X0072609Y0100891D02*
X0072547Y0100831D01*
X0072483Y0100775D01*
X0072416Y0100721D01*
X0072346Y0100670D01*
X0072275Y0100622D01*
X0072202Y0100578D01*
X0072126Y0100536D01*
X0072049Y0100498D01*
X0071971Y0100464D01*
X0071890Y0100433D01*
X0071809Y0100405D01*
X0071727Y0100381D01*
X0071643Y0100361D01*
X0071559Y0100344D01*
X0071474Y0100331D01*
X0071389Y0100321D01*
X0071303Y0100316D01*
X0071217Y0100314D01*
X0064399Y0104252D02*
X0064313Y0104250D01*
X0064227Y0104245D01*
X0064142Y0104235D01*
X0064057Y0104222D01*
X0063973Y0104205D01*
X0063889Y0104185D01*
X0063807Y0104161D01*
X0063726Y0104133D01*
X0063645Y0104102D01*
X0063567Y0104068D01*
X0063490Y0104030D01*
X0063414Y0103988D01*
X0063341Y0103944D01*
X0063270Y0103896D01*
X0063200Y0103845D01*
X0063133Y0103791D01*
X0063069Y0103735D01*
X0063007Y0103675D01*
X0051562Y0092230D02*
X0051502Y0092168D01*
X0051446Y0092104D01*
X0051392Y0092037D01*
X0051341Y0091967D01*
X0051293Y0091896D01*
X0051249Y0091823D01*
X0051207Y0091747D01*
X0051169Y0091670D01*
X0051135Y0091592D01*
X0051104Y0091511D01*
X0051076Y0091430D01*
X0051052Y0091348D01*
X0051032Y0091264D01*
X0051015Y0091180D01*
X0051002Y0091095D01*
X0050992Y0091010D01*
X0050987Y0090924D01*
X0050985Y0090838D01*
X0002167Y0053071D02*
X0003128Y0050673D01*
X0004146Y0048298D01*
X0005221Y0045949D01*
X0006351Y0043626D01*
X0007536Y0041330D01*
X0008775Y0039063D01*
X0010068Y0036826D01*
X0011414Y0034621D01*
X0012812Y0032449D01*
X0014261Y0030310D01*
X0015761Y0028206D01*
X0017310Y0026139D01*
X0018909Y0024109D01*
X0020555Y0022118D01*
X0022248Y0020167D01*
X0023987Y0018256D01*
X0025771Y0016388D01*
X0027599Y0014562D01*
X0029470Y0012781D01*
X0031383Y0011044D01*
X0033336Y0009354D01*
X0035330Y0007710D01*
X0037362Y0006115D01*
X0039431Y0004568D01*
X0041537Y0003071D01*
X0204923Y0034960D02*
X0205514Y0036176D01*
X0206077Y0037405D01*
X0206609Y0038648D01*
X0207112Y0039903D01*
X0207585Y0041169D01*
X0208027Y0042447D01*
X0208439Y0043734D01*
X0208820Y0045031D01*
X0209170Y0046337D01*
X0209488Y0047651D01*
X0209775Y0048972D01*
X0210031Y0050300D01*
X0210254Y0051633D01*
X0210446Y0052971D01*
X0210606Y0054313D01*
X0210733Y0055659D01*
X0210829Y0057008D01*
X0174186Y0004224D02*
X0174097Y0004138D01*
X0174006Y0004055D01*
X0173912Y0003974D01*
X0173815Y0003897D01*
X0173716Y0003823D01*
X0173615Y0003752D01*
X0173512Y0003684D01*
X0173406Y0003619D01*
X0173299Y0003558D01*
X0173189Y0003500D01*
X0173078Y0003446D01*
X0172966Y0003395D01*
X0172851Y0003347D01*
X0172736Y0003304D01*
X0172619Y0003264D01*
X0172500Y0003227D01*
X0172381Y0003195D01*
X0172261Y0003166D01*
X0172140Y0003141D01*
X0172018Y0003119D01*
X0171895Y0003102D01*
X0171773Y0003088D01*
X0171649Y0003079D01*
X0171526Y0003073D01*
X0171402Y0003071D01*
D11*
X0155769Y0050394D02*
X0152226Y0050394D01*
X0152226Y0055394D02*
X0155769Y0055394D01*
X0155769Y0060394D02*
X0152226Y0060394D01*
X0152226Y0065394D02*
X0155769Y0065394D01*
X0155769Y0070394D02*
X0152226Y0070394D01*
X0152226Y0075394D02*
X0155769Y0075394D01*
X0155769Y0080394D02*
X0152226Y0080394D01*
X0152226Y0085394D02*
X0155769Y0085394D01*
X0143682Y0092520D02*
X0143682Y0096063D01*
X0138682Y0096063D02*
X0138682Y0092520D01*
X0133682Y0092520D02*
X0133682Y0096063D01*
X0128682Y0096063D02*
X0128682Y0092520D01*
X0123682Y0092520D02*
X0123682Y0096063D01*
X0118682Y0096063D02*
X0118682Y0092520D01*
X0113682Y0092520D02*
X0113682Y0096063D01*
X0108682Y0096063D02*
X0108682Y0092520D01*
X0100139Y0085394D02*
X0096596Y0085394D01*
X0096596Y0080394D02*
X0100139Y0080394D01*
X0100139Y0075394D02*
X0096596Y0075394D01*
X0096596Y0070394D02*
X0100139Y0070394D01*
X0100139Y0065394D02*
X0096596Y0065394D01*
X0096596Y0060394D02*
X0100139Y0060394D01*
X0100139Y0055394D02*
X0096596Y0055394D01*
X0096596Y0050394D02*
X0100139Y0050394D01*
D12*
X0040080Y0058299D03*
X0010080Y0058299D03*
X0010080Y0088299D03*
X0040080Y0088299D03*
D13*
X0062348Y0113898D03*
X0070080Y0088299D03*
X0080080Y0088299D03*
X0080080Y0058299D03*
X0070080Y0058299D03*
X0172584Y0143819D03*
X0172584Y0173740D03*
X0062348Y0173740D03*
X0043664Y0164478D03*
X0023664Y0164478D03*
D14*
X0028151Y0145149D03*
X0028151Y0125464D03*
X0028151Y0105779D03*
D15*
X0060434Y0037913D03*
X0080119Y0028071D03*
X0060434Y0018228D03*
X0080119Y0008386D03*
X0170320Y0074527D03*
X0170320Y0094212D03*
X0190005Y0084370D03*
X0190005Y0064685D03*
D16*
X0197379Y0110945D03*
X0197379Y0133779D03*
D17*
X0187367Y0043360D02*
X0186619Y0042612D01*
X0186619Y0045090D01*
X0188371Y0046842D01*
X0190849Y0046842D01*
X0192601Y0045090D01*
X0192601Y0042612D01*
X0190849Y0040860D01*
X0188371Y0040860D01*
X0186619Y0042612D01*
X0187741Y0043077D01*
X0187741Y0044625D01*
X0188836Y0045720D01*
X0190384Y0045720D01*
X0191479Y0044625D01*
X0191479Y0043077D01*
X0190384Y0041982D01*
X0188836Y0041982D01*
X0187741Y0043077D01*
X0188863Y0043541D01*
X0188863Y0044161D01*
X0189300Y0044598D01*
X0189920Y0044598D01*
X0190357Y0044161D01*
X0190357Y0043541D01*
X0189920Y0043104D01*
X0189300Y0043104D01*
X0188863Y0043541D01*
X0180296Y0036289D02*
X0179548Y0035541D01*
X0179548Y0038019D01*
X0181300Y0039771D01*
X0183778Y0039771D01*
X0185530Y0038019D01*
X0185530Y0035541D01*
X0183778Y0033789D01*
X0181300Y0033789D01*
X0179548Y0035541D01*
X0180670Y0036006D01*
X0180670Y0037554D01*
X0181765Y0038649D01*
X0183313Y0038649D01*
X0184408Y0037554D01*
X0184408Y0036006D01*
X0183313Y0034911D01*
X0181765Y0034911D01*
X0180670Y0036006D01*
X0181792Y0036470D01*
X0181792Y0037090D01*
X0182229Y0037527D01*
X0182849Y0037527D01*
X0183286Y0037090D01*
X0183286Y0036470D01*
X0182849Y0036033D01*
X0182229Y0036033D01*
X0181792Y0036470D01*
X0173225Y0029218D02*
X0172477Y0028470D01*
X0172477Y0030948D01*
X0174229Y0032700D01*
X0176707Y0032700D01*
X0178459Y0030948D01*
X0178459Y0028470D01*
X0176707Y0026718D01*
X0174229Y0026718D01*
X0172477Y0028470D01*
X0173599Y0028935D01*
X0173599Y0030483D01*
X0174694Y0031578D01*
X0176242Y0031578D01*
X0177337Y0030483D01*
X0177337Y0028935D01*
X0176242Y0027840D01*
X0174694Y0027840D01*
X0173599Y0028935D01*
X0174721Y0029399D01*
X0174721Y0030019D01*
X0175158Y0030456D01*
X0175778Y0030456D01*
X0176215Y0030019D01*
X0176215Y0029399D01*
X0175778Y0028962D01*
X0175158Y0028962D01*
X0174721Y0029399D01*
X0166154Y0022146D02*
X0165406Y0021398D01*
X0165406Y0023876D01*
X0167158Y0025628D01*
X0169636Y0025628D01*
X0171388Y0023876D01*
X0171388Y0021398D01*
X0169636Y0019646D01*
X0167158Y0019646D01*
X0165406Y0021398D01*
X0166528Y0021863D01*
X0166528Y0023411D01*
X0167623Y0024506D01*
X0169171Y0024506D01*
X0170266Y0023411D01*
X0170266Y0021863D01*
X0169171Y0020768D01*
X0167623Y0020768D01*
X0166528Y0021863D01*
X0167650Y0022327D01*
X0167650Y0022947D01*
X0168087Y0023384D01*
X0168707Y0023384D01*
X0169144Y0022947D01*
X0169144Y0022327D01*
X0168707Y0021890D01*
X0168087Y0021890D01*
X0167650Y0022327D01*
X0159083Y0015075D02*
X0158335Y0014327D01*
X0158335Y0016805D01*
X0160087Y0018557D01*
X0162565Y0018557D01*
X0164317Y0016805D01*
X0164317Y0014327D01*
X0162565Y0012575D01*
X0160087Y0012575D01*
X0158335Y0014327D01*
X0159457Y0014792D01*
X0159457Y0016340D01*
X0160552Y0017435D01*
X0162100Y0017435D01*
X0163195Y0016340D01*
X0163195Y0014792D01*
X0162100Y0013697D01*
X0160552Y0013697D01*
X0159457Y0014792D01*
X0160579Y0015256D01*
X0160579Y0015876D01*
X0161016Y0016313D01*
X0161636Y0016313D01*
X0162073Y0015876D01*
X0162073Y0015256D01*
X0161636Y0014819D01*
X0161016Y0014819D01*
X0160579Y0015256D01*
X0166154Y0008004D02*
X0165406Y0007256D01*
X0165406Y0009734D01*
X0167158Y0011486D01*
X0169636Y0011486D01*
X0171388Y0009734D01*
X0171388Y0007256D01*
X0169636Y0005504D01*
X0167158Y0005504D01*
X0165406Y0007256D01*
X0166528Y0007721D01*
X0166528Y0009269D01*
X0167623Y0010364D01*
X0169171Y0010364D01*
X0170266Y0009269D01*
X0170266Y0007721D01*
X0169171Y0006626D01*
X0167623Y0006626D01*
X0166528Y0007721D01*
X0167650Y0008185D01*
X0167650Y0008805D01*
X0168087Y0009242D01*
X0168707Y0009242D01*
X0169144Y0008805D01*
X0169144Y0008185D01*
X0168707Y0007748D01*
X0168087Y0007748D01*
X0167650Y0008185D01*
X0173225Y0015075D02*
X0172477Y0014327D01*
X0172477Y0016805D01*
X0174229Y0018557D01*
X0176707Y0018557D01*
X0178459Y0016805D01*
X0178459Y0014327D01*
X0176707Y0012575D01*
X0174229Y0012575D01*
X0172477Y0014327D01*
X0173599Y0014792D01*
X0173599Y0016340D01*
X0174694Y0017435D01*
X0176242Y0017435D01*
X0177337Y0016340D01*
X0177337Y0014792D01*
X0176242Y0013697D01*
X0174694Y0013697D01*
X0173599Y0014792D01*
X0174721Y0015256D01*
X0174721Y0015876D01*
X0175158Y0016313D01*
X0175778Y0016313D01*
X0176215Y0015876D01*
X0176215Y0015256D01*
X0175778Y0014819D01*
X0175158Y0014819D01*
X0174721Y0015256D01*
X0180296Y0022146D02*
X0179548Y0021398D01*
X0179548Y0023876D01*
X0181300Y0025628D01*
X0183778Y0025628D01*
X0185530Y0023876D01*
X0185530Y0021398D01*
X0183778Y0019646D01*
X0181300Y0019646D01*
X0179548Y0021398D01*
X0180670Y0021863D01*
X0180670Y0023411D01*
X0181765Y0024506D01*
X0183313Y0024506D01*
X0184408Y0023411D01*
X0184408Y0021863D01*
X0183313Y0020768D01*
X0181765Y0020768D01*
X0180670Y0021863D01*
X0181792Y0022327D01*
X0181792Y0022947D01*
X0182229Y0023384D01*
X0182849Y0023384D01*
X0183286Y0022947D01*
X0183286Y0022327D01*
X0182849Y0021890D01*
X0182229Y0021890D01*
X0181792Y0022327D01*
X0187367Y0029218D02*
X0186619Y0028470D01*
X0186619Y0030948D01*
X0188371Y0032700D01*
X0190849Y0032700D01*
X0192601Y0030948D01*
X0192601Y0028470D01*
X0190849Y0026718D01*
X0188371Y0026718D01*
X0186619Y0028470D01*
X0187741Y0028935D01*
X0187741Y0030483D01*
X0188836Y0031578D01*
X0190384Y0031578D01*
X0191479Y0030483D01*
X0191479Y0028935D01*
X0190384Y0027840D01*
X0188836Y0027840D01*
X0187741Y0028935D01*
X0188863Y0029399D01*
X0188863Y0030019D01*
X0189300Y0030456D01*
X0189920Y0030456D01*
X0190357Y0030019D01*
X0190357Y0029399D01*
X0189920Y0028962D01*
X0189300Y0028962D01*
X0188863Y0029399D01*
X0194438Y0036289D02*
X0193690Y0035541D01*
X0193690Y0038019D01*
X0195442Y0039771D01*
X0197920Y0039771D01*
X0199672Y0038019D01*
X0199672Y0035541D01*
X0197920Y0033789D01*
X0195442Y0033789D01*
X0193690Y0035541D01*
X0194812Y0036006D01*
X0194812Y0037554D01*
X0195907Y0038649D01*
X0197455Y0038649D01*
X0198550Y0037554D01*
X0198550Y0036006D01*
X0197455Y0034911D01*
X0195907Y0034911D01*
X0194812Y0036006D01*
X0195934Y0036470D01*
X0195934Y0037090D01*
X0196371Y0037527D01*
X0196991Y0037527D01*
X0197428Y0037090D01*
X0197428Y0036470D01*
X0196991Y0036033D01*
X0196371Y0036033D01*
X0195934Y0036470D01*
D18*
X0088962Y0069240D03*
X0088962Y0076720D03*
D19*
X0087938Y0143819D03*
X0146993Y0143819D03*
D20*
X0128600Y0116413D03*
X0085667Y0103571D03*
X0076367Y0045871D03*
X0094497Y0025134D03*
X0068612Y0012134D03*
X0049623Y0034083D03*
X0041497Y0034134D03*
X0163997Y0055394D03*
X0178163Y0051457D03*
X0201241Y0081449D03*
X0183804Y0107933D03*
X0190159Y0133779D03*
X0204332Y0133779D03*
M02*
